<svg width="999" height="134" viewBox="0 0 999 134" fill="none" xmlns="http://www.w3.org/2000/svg">
<g clip-path="url(#clip0_0_286)">
<path d="M311.956 12.8742V28.8382H261.318V64.0277H300.799V79.9917H261.318V132.175H241.749V12.8742H311.956Z" fill="#303030"/>
<path d="M340.048 25.0618C336.5 25.0618 333.525 23.8602 331.121 21.457C328.718 19.0538 327.517 16.0784 327.517 12.5309C327.517 8.98333 328.718 6.00796 331.121 3.60478C333.525 1.20159 336.5 0 340.048 0C343.481 0 346.399 1.20159 348.802 3.60478C351.205 6.00796 352.407 8.98333 352.407 12.5309C352.407 16.0784 351.205 19.0538 348.802 21.457C346.399 23.8602 343.481 25.0618 340.048 25.0618ZM349.66 37.5927V132.175H330.091V37.5927H349.66Z" fill="#303030"/>
<path d="M394.921 5.14968V132.175H375.352V5.14968H394.921Z" fill="#303030"/>
<path d="M507.299 82.5665C507.299 86.1141 507.071 89.3183 506.613 92.1792H434.346C434.918 99.7321 437.722 105.797 442.757 110.375C447.792 114.952 453.972 117.241 461.296 117.241C471.824 117.241 479.262 112.835 483.611 104.024H504.725C501.864 112.721 496.657 119.873 489.104 125.48C481.665 130.973 472.396 133.72 461.296 133.72C452.255 133.72 444.13 131.717 436.92 127.712C429.825 123.592 424.218 117.87 420.098 110.546C416.093 103.108 414.09 94.5252 414.09 84.798C414.09 75.0709 416.036 66.5453 419.927 59.2213C423.932 51.7829 429.482 46.061 436.577 42.0557C443.787 38.0504 452.026 36.0478 461.296 36.0478C470.222 36.0478 478.175 37.9932 485.156 41.8841C492.136 45.7749 497.572 51.2679 501.463 58.363C505.354 65.3437 507.299 73.4115 507.299 82.5665ZM486.872 76.3869C486.758 69.1773 484.183 63.3983 479.148 59.0496C474.113 54.701 467.876 52.5267 460.437 52.5267C453.686 52.5267 447.906 54.701 443.1 59.0496C438.294 63.2838 435.433 69.0629 434.517 76.3869H486.872Z" fill="#303030"/>
<path d="M560.888 133.72C553.45 133.72 546.755 132.404 540.804 129.772C534.968 127.025 530.333 123.363 526.9 118.786C523.467 114.094 521.636 108.887 521.407 103.165H541.663C542.006 107.171 543.894 110.546 547.327 113.293C550.875 115.925 555.281 117.241 560.545 117.241C566.038 117.241 570.272 116.211 573.247 114.151C576.337 111.977 577.882 109.23 577.882 105.912C577.882 102.364 576.166 99.7321 572.732 98.0155C569.414 96.299 564.092 94.4108 556.768 92.3509C549.673 90.4055 543.894 88.5172 539.431 86.6862C534.968 84.8553 531.077 82.0515 527.759 78.2751C524.554 74.4987 522.952 69.5207 522.952 63.341C522.952 58.3058 524.44 53.7283 527.415 49.6086C530.391 45.3744 534.625 42.0557 540.118 39.6525C545.725 37.2493 552.134 36.0478 559.343 36.0478C570.1 36.0478 578.74 38.7942 585.263 44.2872C591.901 49.6658 595.448 57.047 595.906 66.4309H576.337C575.994 62.1967 574.277 58.8208 571.188 56.3031C568.098 53.7855 563.921 52.5267 558.657 52.5267C553.507 52.5267 549.559 53.4994 546.812 55.4449C544.066 57.3903 542.693 59.9651 542.693 63.1694C542.693 65.687 543.608 67.8041 545.439 69.5207C547.27 71.2372 549.502 72.6105 552.134 73.6404C554.766 74.5559 558.657 75.7575 563.806 77.2452C570.673 79.0762 576.28 80.9644 580.629 82.9098C585.092 84.7408 588.925 87.4873 592.13 91.1493C595.334 94.8113 596.993 99.6749 597.108 105.74C597.108 111.119 595.62 115.925 592.645 120.159C589.669 124.393 585.435 127.712 579.942 130.115C574.563 132.518 568.212 133.72 560.888 133.72Z" fill="#303030"/>
<path d="M667.174 36.0478C674.384 36.0478 680.792 37.5927 686.4 40.6825C692.121 43.7723 696.584 48.3498 699.789 54.4149C703.107 60.4801 704.767 67.8041 704.767 76.3869V132.175H685.37V79.305C685.37 70.8367 683.253 64.371 679.018 59.9079C674.784 55.3304 669.005 53.0417 661.681 53.0417C654.357 53.0417 648.521 55.3304 644.172 59.9079C639.938 64.371 637.821 70.8367 637.821 79.305V132.175H618.252V5.14968H637.821V48.5786C641.14 44.5733 645.317 41.4835 650.352 39.3092C655.501 37.1349 661.109 36.0478 667.174 36.0478Z" fill="#303030"/>
<path d="M723.205 84.4547C723.205 74.9564 725.15 66.5453 729.041 59.2213C733.047 51.8973 738.425 46.2327 745.177 42.2274C752.043 38.1076 759.596 36.0478 767.836 36.0478C775.274 36.0478 781.74 37.5354 787.233 40.5108C792.84 43.3717 797.303 46.9765 800.622 51.3251V37.5927H820.362V132.175H800.622V118.099C797.303 122.562 792.783 126.282 787.061 129.257C781.339 132.232 774.816 133.72 767.492 133.72C759.367 133.72 751.929 131.66 745.177 127.54C738.425 123.306 733.047 117.47 729.041 110.031C725.15 102.479 723.205 93.953 723.205 84.4547ZM800.622 84.798C800.622 78.2751 799.249 72.6105 796.502 67.8041C793.87 62.9977 790.38 59.3357 786.031 56.8181C781.682 54.3005 776.991 53.0417 771.955 53.0417C766.92 53.0417 762.228 54.3005 757.879 56.8181C753.531 59.2213 749.983 62.8261 747.237 67.6324C744.605 72.3244 743.289 77.9318 743.289 84.4547C743.289 90.9776 744.605 96.6995 747.237 101.62C749.983 106.541 753.531 110.318 757.879 112.95C762.343 115.467 767.034 116.726 771.955 116.726C776.991 116.726 781.682 115.467 786.031 112.95C790.38 110.432 793.87 106.77 796.502 101.964C799.249 97.0428 800.622 91.321 800.622 84.798Z" fill="#303030"/>
<path d="M865.634 51.3251C868.495 46.5188 872.271 42.7996 876.963 40.1675C881.769 37.421 887.434 36.0478 893.957 36.0478V56.3031H888.979C881.312 56.3031 875.475 58.2486 871.47 62.1395C867.579 66.0303 865.634 72.7821 865.634 82.3949V132.175H846.065V37.5927H865.634V51.3251Z" fill="#303030"/>
<path d="M998.631 82.5665C998.631 86.1141 998.402 89.3183 997.944 92.1792H925.677C926.249 99.7321 929.053 105.797 934.088 110.375C939.124 114.952 945.303 117.241 952.627 117.241C963.155 117.241 970.594 112.835 974.942 104.024H996.056C993.195 112.721 987.988 119.873 980.435 125.48C972.997 130.973 963.728 133.72 952.627 133.72C943.587 133.72 935.462 131.717 928.252 127.712C921.157 123.592 915.549 117.87 911.43 110.546C907.424 103.108 905.422 94.5252 905.422 84.798C905.422 75.0709 907.367 66.5453 911.258 59.2213C915.263 51.7829 920.814 46.061 927.909 42.0557C935.118 38.0504 943.358 36.0478 952.627 36.0478C961.553 36.0478 969.507 37.9932 976.487 41.8841C983.468 45.7749 988.904 51.2679 992.795 58.363C996.685 65.3437 998.631 73.4115 998.631 82.5665ZM978.204 76.3869C978.089 69.1773 975.515 63.3983 970.479 59.0496C965.444 54.701 959.207 52.5267 951.769 52.5267C945.017 52.5267 939.238 54.701 934.432 59.0496C929.625 63.2838 926.764 69.0629 925.849 76.3869H978.204Z" fill="#303030"/>
<path d="M146.027 9.28501H96.4074C93.1114 9.28501 90.4472 11.9008 90.4472 15.1369C90.4472 18.373 93.1114 20.9888 96.4074 20.9888H146.027C150.956 20.9888 154.967 24.9272 154.967 29.7667V111.693C154.967 116.533 150.956 120.471 146.027 120.471C141.092 120.471 137.086 116.539 137.086 111.693C137.086 104.917 137.086 111.693 137.086 44.3964C137.086 41.1603 134.422 38.5445 131.126 38.5445H99.3876C91.8538 38.5445 92.4379 38.5387 92.3604 38.527C91.6094 38.1583 89.1419 35.5718 88.2061 34.6004L64.52 11.2688C60.6398 7.42996 52.808 3.43311 46.8418 3.43311H11.5033C5.15564 3.43311 0 8.50086 0 14.7273C0 68.2547 0 19.4147 0 111.693C0 122.988 9.35763 132.175 20.861 132.175C22.1365 132.175 25.5994 132.175 146.027 132.175C157.53 132.175 166.888 122.988 166.888 111.693V29.7667C166.888 18.4784 157.53 9.28501 146.027 9.28501Z" fill="#006BE8"/>
</g>
<defs>
<clipPath id="clip0_0_286">
<rect width="998.631" height="133.72" fill="white"/>
</clipPath>
</defs>
</svg>
