<svg version="1.1" xmlns="http://www.w3.org/2000/svg" viewBox="0 0 1162.9696198964782 465.0959138401139" width="1162.9696198964782" height="465.0959138401139" filter="invert(93%) hue-rotate(180deg)">
  <!-- svg-source:excalidraw -->
  
  <defs>
    <style class="style-fonts">
      @font-face {
        font-family: "Virgil";
        src: url("https://excalidraw.com/Virgil.woff2");
      }
      @font-face {
        font-family: "Cascadia";
        src: url("https://excalidraw.com/Cascadia.woff2");
      }
      @font-face {
        font-family: "Assistant";
        src: url("https://excalidraw.com/Assistant-Regular.woff2");
      }
    </style>
    
  </defs>
  <rect x="0" y="0" width="1162.9696198964782" height="465.0959138401139" fill="#ffffff"></rect><g transform="translate(18.256202589387385 245.61834733306353) rotate(0 17.866666793823242 10)"><text x="0" y="14.016" font-family="Virgil, Segoe UI Emoji" font-size="16px" fill="#000000" text-anchor="start" style="white-space: pre;" direction="ltr" dominant-baseline="alphabetic">User</text></g><g stroke-linecap="round"><g transform="translate(10 238.9344032639649) rotate(0 24.634710359068734 -21.936502105304584)" fill-rule="evenodd"><path d="M13.47 -38.64 C13.47 -38.64, 13.47 -38.64, 13.47 -38.64 M13.47 -38.64 C13.47 -38.64, 13.47 -38.64, 13.47 -38.64 M3.11 -14.53 C10.43 -22.95, 17.75 -31.37, 28.04 -43.2 M3.11 -14.53 C11.2 -23.84, 19.3 -33.16, 28.04 -43.2 M0.61 0.53 C7.67 -7.58, 14.72 -15.69, 35.39 -39.47 M0.61 0.53 C9.75 -9.98, 18.89 -20.49, 35.39 -39.47 M11.24 0.5 C18.62 -7.99, 26 -16.48, 40.77 -33.46 M11.24 0.5 C17.84 -7.09, 24.44 -14.68, 40.77 -33.46 M21.87 0.47 C30.74 -9.73, 39.6 -19.93, 44.84 -25.95 M21.87 0.47 C30.06 -8.95, 38.25 -18.37, 44.84 -25.95 M32.5 0.43 C36.42 -4.07, 40.33 -8.57, 48.91 -18.44 M32.5 0.43 C38.13 -6.04, 43.75 -12.51, 48.91 -18.44 M44.45 -1.11 C47.12 -4.19, 49.79 -7.26, 51.66 -9.41 M44.45 -1.11 C47.23 -4.32, 50.02 -7.53, 51.66 -9.41 M0 0 C0 0, 0 0, 0 0 M0 0 C0 0, 0 0, 0 0 M12.04 -0.13 C9.35 -2.47, 6.66 -4.81, 1.47 -9.32 M12.04 -0.13 C8.73 -3.01, 5.42 -5.89, 1.47 -9.32 M24.84 0.39 C17.29 -6.17, 9.75 -12.73, 2.95 -18.64 M24.84 0.39 C17.57 -5.93, 10.3 -12.25, 2.95 -18.64 M36.12 -0.4 C29.73 -5.96, 23.34 -11.51, 5.18 -27.3 M36.12 -0.4 C25.04 -10.03, 13.97 -19.66, 5.18 -27.3 M46.65 -1.84 C36.63 -10.55, 26.62 -19.26, 9.67 -33.99 M46.65 -1.84 C33.12 -13.61, 19.58 -25.38, 9.67 -33.99 M51.9 -7.88 C38.59 -19.45, 25.28 -31.03, 14.92 -40.03 M51.9 -7.88 C40.92 -17.43, 29.94 -26.97, 14.92 -40.03 M47.34 -22.45 C41.19 -27.8, 35.03 -33.15, 22.43 -44.1 M47.34 -22.45 C38.66 -29.99, 29.99 -37.53, 22.43 -44.1" stroke="#ced4da" stroke-width="1" fill="none"></path><path d="M0 0 C0.92 -4.85, 1.58 -21.76, 5.52 -29.07 C9.46 -36.38, 17.61 -43.34, 23.65 -43.87 C29.69 -44.4, 37.51 -39.05, 41.78 -32.24 C46.05 -25.43, 56.23 -8.39, 49.27 -3.02 C42.31 2.36, 8.21 -0.5, 0 0 M0 0 C0.92 -4.85, 1.58 -21.76, 5.52 -29.07 C9.46 -36.38, 17.61 -43.34, 23.65 -43.87 C29.69 -44.4, 37.51 -39.05, 41.78 -32.24 C46.05 -25.43, 56.23 -8.39, 49.27 -3.02 C42.31 2.36, 8.21 -0.5, 0 0" stroke="#000000" stroke-width="2" fill="none"></path></g></g><mask></mask><g stroke-linecap="round" transform="translate(22.453870836315673 172.24335547810847) rotate(0 12.6129717038432 11.036350240862845)"><path d="M2.98 3.91 C2.98 3.91, 2.98 3.91, 2.98 3.91 M2.98 3.91 C2.98 3.91, 2.98 3.91, 2.98 3.91 M2.45 16.71 C6.91 11.58, 11.36 6.46, 16.23 0.86 M2.45 16.71 C7.87 10.48, 13.29 4.25, 16.23 0.86 M8.49 21.96 C11.74 18.22, 14.99 14.48, 22.92 5.35 M8.49 21.96 C12.29 17.59, 16.09 13.22, 22.92 5.35 M4.36 19.37 C4.36 19.37, 4.36 19.37, 4.36 19.37 M4.36 19.37 C4.36 19.37, 4.36 19.37, 4.36 19.37 M17.91 20.55 C14.3 17.41, 10.69 14.27, 1.31 6.11 M17.91 20.55 C13.41 16.63, 8.9 12.71, 1.31 6.11 M23.92 15.17 C18.02 10.04, 12.12 4.91, 7.31 0.73 M23.92 15.17 C18.52 10.48, 13.13 5.79, 7.31 0.73" stroke="#ced4da" stroke-width="1" fill="none"></path><path d="M25.23 11.04 C25.23 11.68, 25.16 12.32, 25.03 12.95 C24.91 13.58, 24.71 14.21, 24.47 14.81 C24.22 15.41, 23.9 16, 23.54 16.55 C23.17 17.11, 22.74 17.64, 22.28 18.13 C21.81 18.62, 21.28 19.08, 20.72 19.49 C20.16 19.9, 19.55 20.27, 18.92 20.59 C18.29 20.91, 17.61 21.19, 16.93 21.41 C16.24 21.63, 15.52 21.79, 14.8 21.91 C14.08 22.02, 13.34 22.07, 12.61 22.07 C11.88 22.07, 11.14 22.02, 10.42 21.91 C9.7 21.79, 8.99 21.63, 8.3 21.41 C7.61 21.19, 6.94 20.91, 6.31 20.59 C5.67 20.27, 5.06 19.9, 4.51 19.49 C3.95 19.08, 3.42 18.62, 2.95 18.13 C2.48 17.64, 2.05 17.11, 1.69 16.55 C1.32 16, 1.01 15.41, 0.76 14.81 C0.51 14.21, 0.32 13.58, 0.19 12.95 C0.06 12.32, 0 11.68, 0 11.04 C0 10.4, 0.06 9.75, 0.19 9.12 C0.32 8.49, 0.51 7.86, 0.76 7.26 C1.01 6.66, 1.32 6.07, 1.69 5.52 C2.05 4.96, 2.48 4.43, 2.95 3.94 C3.42 3.45, 3.95 2.99, 4.51 2.58 C5.06 2.17, 5.67 1.8, 6.31 1.48 C6.94 1.16, 7.61 0.88, 8.3 0.67 C8.99 0.45, 9.7 0.28, 10.42 0.17 C11.14 0.06, 11.88 0, 12.61 0 C13.34 0, 14.08 0.06, 14.8 0.17 C15.52 0.28, 16.24 0.45, 16.93 0.67 C17.61 0.88, 18.29 1.16, 18.92 1.48 C19.55 1.8, 20.16 2.17, 20.72 2.58 C21.28 2.99, 21.81 3.45, 22.28 3.94 C22.74 4.43, 23.17 4.96, 23.54 5.52 C23.9 6.07, 24.22 6.66, 24.47 7.26 C24.71 7.86, 24.91 8.49, 25.03 9.12 C25.16 9.75, 25.19 10.72, 25.23 11.04 C25.26 11.36, 25.26 10.72, 25.23 11.04" stroke="#000000" stroke-width="2" fill="none"></path></g><g stroke-linecap="round"><g transform="translate(1054.521371286527 337.58087125677275) rotate(0 38.5043255239151 41.817628913120245)" fill-rule="evenodd"><path d="M-1.11 -1.27 C-0.84 10.88, 0.47 61.19, 0.42 74.99 C0.36 88.79, -1.8 79.21, -1.43 81.53 C-1.06 83.85, -0.75 87.67, 2.64 88.92 C6.03 90.17, 12.12 88.88, 18.9 89.03 C25.68 89.18, 35.77 89.69, 43.33 89.82 C50.89 89.94, 59.25 90.34, 64.28 89.76 C69.3 89.19, 71.41 87.28, 73.47 86.37 C75.53 85.46, 76.02 86.15, 76.62 84.29 C77.23 82.43, 77.12 88.21, 77.11 75.21 C77.1 62.22, 76.67 18.77, 76.58 6.31 C76.49 -6.15, 77.33 2.32, 76.56 0.44 C75.78 -1.43, 74.13 -3.56, 71.94 -4.94 C69.74 -6.33, 68.82 -7.2, 63.37 -7.87 C57.92 -8.53, 46.82 -8.82, 39.24 -8.94 C31.66 -9.07, 23.58 -9.72, 17.9 -8.61 C12.22 -7.5, 7.94 -3.6, 5.15 -2.3 C2.37 -1, 2.35 -1.01, 1.18 -0.78 C0.01 -0.56, -1.75 -0.94, -1.87 -0.96" stroke="none" stroke-width="0" fill="#ced4da" fill-rule="evenodd"></path><path d="M0.4 0.43 C0.71 12.84, 1.56 61.54, 1.36 75.33 C1.15 89.12, -1.32 81.16, -0.83 83.17 C-0.33 85.18, 1.36 86.09, 4.33 87.41 C7.3 88.72, 10.98 90.38, 17 91.07 C23.02 91.75, 32.94 91.77, 40.46 91.53 C47.98 91.29, 56.27 90.69, 62.13 89.63 C68 88.56, 73.15 86.27, 75.65 85.13 C78.15 83.99, 76.91 84.23, 77.14 82.79 C77.38 81.35, 77.15 89.34, 77.06 76.48 C76.97 63.63, 76.85 18.54, 76.61 5.67 C76.37 -7.19, 76.54 0.97, 75.63 -0.71 C74.73 -2.38, 73.53 -3.46, 71.2 -4.39 C68.87 -5.33, 67.09 -5.66, 61.64 -6.32 C56.18 -6.99, 45.76 -8.33, 38.47 -8.36 C31.17 -8.39, 23.76 -7.45, 17.85 -6.51 C11.94 -5.57, 5.96 -3.94, 3.01 -2.71 C0.05 -1.49, 0.8 0.46, 0.12 0.85 C-0.56 1.24, -0.92 -0.24, -1.08 -0.36 M-0.85 -0.39 C-0.55 12.16, 0.57 62.85, 0.99 76.94 C1.4 91.04, 1 82.26, 1.63 84.18 C2.26 86.1, 1.9 87.23, 4.76 88.48 C7.62 89.74, 12.66 91.37, 18.79 91.7 C24.93 92.04, 34.33 90.47, 41.56 90.47 C48.78 90.48, 56.6 92.18, 62.15 91.74 C67.71 91.3, 72.64 88.98, 74.89 87.84 C77.14 86.69, 75.15 86.83, 75.65 84.88 C76.14 82.93, 77.65 89.24, 77.84 76.15 C78.03 63.06, 76.86 19.24, 76.79 6.33 C76.73 -6.59, 78.37 0.62, 77.45 -1.34 C76.53 -3.3, 73.98 -4.55, 71.27 -5.43 C68.57 -6.31, 67.15 -6, 61.22 -6.62 C55.3 -7.24, 42.83 -9.4, 35.74 -9.14 C28.64 -8.89, 24.35 -6.32, 18.66 -5.08 C12.97 -3.83, 4.89 -2.83, 1.6 -1.7 C-1.69 -0.57, -0.92 1.45, -1.08 1.69 C-1.24 1.92, 0.59 0.26, 0.63 -0.29" stroke="#000000" stroke-width="1" fill="none"></path></g></g><mask></mask><g stroke-linecap="round"><g transform="translate(1055.045300724802 394.70715491450267) rotate(0 38.58599110596788 3.8876540365893675)"><path d="M1.1 0.13 C1.23 0.53, -0.48 1.81, 1.2 2.82 C2.87 3.84, 7.74 5.28, 11.16 6.22 C14.58 7.17, 16.88 8.17, 21.71 8.48 C26.55 8.8, 33.62 8.43, 40.15 8.13 C46.68 7.83, 55.08 7.72, 60.89 6.68 C66.71 5.64, 72.27 3.12, 75.04 1.89 C77.8 0.65, 77.14 -0.41, 77.5 -0.75 M0.22 -0.84 C0.7 -0.33, 1.74 2.66, 3.47 4.05 C5.19 5.44, 7.56 6.55, 10.58 7.51 C13.59 8.48, 16.32 9.67, 21.57 9.84 C26.81 10, 35.34 9.24, 42.02 8.5 C48.71 7.77, 56.03 6.26, 61.68 5.44 C67.33 4.62, 73.45 4.71, 75.94 3.59 C78.44 2.47, 76.72 -0.44, 76.65 -1.28" stroke="#000000" stroke-width="1" fill="none"></path></g></g><mask></mask><g stroke-linecap="round"><g transform="translate(1054.0134434022982 365.7430995792796) rotate(0 38.585991105967764 3.8876540365893675)"><path d="M-0.84 -0.59 C-0.62 -0.05, 0.58 2.14, 2.39 3.36 C4.2 4.58, 6.8 5.98, 10.05 6.75 C13.29 7.52, 16.95 7.8, 21.87 7.97 C26.79 8.15, 32.78 8.13, 39.56 7.78 C46.35 7.44, 56.7 6.75, 62.58 5.9 C68.46 5.05, 72.43 3.7, 74.86 2.69 C77.3 1.68, 76.84 0.45, 77.18 -0.17 M0.92 1.71 C0.92 2.44, -0.31 4.38, 1.63 4.87 C3.56 5.36, 9.18 3.96, 12.55 4.65 C15.91 5.35, 17.04 8.51, 21.8 9.06 C26.57 9.61, 34.66 8.16, 41.13 7.97 C47.59 7.78, 54.84 8.44, 60.6 7.91 C66.35 7.39, 73.08 6.2, 75.68 4.82 C78.27 3.43, 75.65 0.26, 76.17 -0.39" stroke="#000000" stroke-width="1" fill="none"></path></g></g><mask></mask><g stroke-linecap="round" transform="translate(1052.9554944202162 330.44860263109115) rotate(0 38.29876800932743 7.745637696424012)"><path d="M38.51 0.47 C46.23 0.44, 56.64 1.27, 62.87 2.26 C69.1 3.25, 74.54 4.77, 75.88 6.4 C77.22 8.04, 75.02 10.59, 70.91 12.07 C66.79 13.55, 58.91 14.88, 51.2 15.3 C43.5 15.72, 32.42 15.22, 24.67 14.61 C16.92 14, 8.77 12.99, 4.73 11.64 C0.7 10.29, -1 8.12, 0.46 6.54 C1.93 4.96, 6.85 3.19, 13.53 2.16 C20.21 1.12, 35.9 0.68, 40.55 0.33 C45.19 -0.02, 41.44 0.06, 41.4 0.07 M45.53 0.51 C53.45 0.88, 63.38 2.22, 68.61 3.37 C73.84 4.52, 77.13 5.73, 76.9 7.42 C76.66 9.11, 72.66 12.08, 67.21 13.53 C61.76 14.98, 52.36 15.97, 44.2 16.14 C36.04 16.32, 25.2 15.67, 18.23 14.6 C11.26 13.52, 5.05 11.35, 2.4 9.69 C-0.24 8.04, -0.45 6.23, 2.37 4.68 C5.2 3.12, 12.14 1.19, 19.36 0.36 C26.58 -0.47, 41.39 -0.29, 45.68 -0.31 C49.97 -0.32, 45.12 -0.01, 45.11 0.27" stroke="none" stroke-width="0" fill="#fff"></path><path d="M32.29 -0.4 C39.85 -0.67, 50.9 0.36, 57.86 1.32 C64.82 2.28, 71.35 3.83, 74.03 5.36 C76.7 6.9, 76.75 9.02, 73.91 10.53 C71.06 12.03, 64.16 13.66, 56.96 14.41 C49.77 15.16, 38.83 15.33, 30.73 15.01 C22.63 14.69, 13.52 13.69, 8.37 12.5 C3.22 11.3, -0.32 9.4, -0.16 7.84 C0 6.28, 3.67 4.47, 9.31 3.14 C14.96 1.81, 29.32 0.39, 33.72 -0.13 C38.12 -0.64, 35.56 -0.12, 35.7 0.05 M44.88 0.22 C52.68 0.56, 62.34 2.28, 67.57 3.48 C72.79 4.68, 76.29 5.91, 76.26 7.45 C76.23 8.99, 72.75 11.52, 67.39 12.73 C62.02 13.94, 52.22 14.35, 44.05 14.7 C35.87 15.06, 25.26 15.67, 18.34 14.85 C11.42 14.04, 5.03 11.56, 2.5 9.83 C-0.02 8.1, 0.28 5.96, 3.17 4.47 C6.06 2.99, 12.89 1.63, 19.85 0.92 C26.8 0.2, 40.67 0.21, 44.89 0.16 C49.12 0.11, 45.24 0.57, 45.21 0.64" stroke="#000000" stroke-width="1" fill="none"></path></g><g stroke-linecap="round" transform="translate(1089.4474815254387 354.92527031099473) rotate(0 5.61305157708091 6.091879242227776)"><path d="M5.51 0.4 C6.65 0.28, 8.32 0.65, 9.2 1.53 C10.09 2.41, 10.6 4.33, 10.82 5.68 C11.04 7.03, 11.15 8.64, 10.53 9.62 C9.92 10.59, 8.36 11.16, 7.15 11.52 C5.94 11.89, 4.38 12.21, 3.27 11.81 C2.15 11.41, 1.04 10.23, 0.44 9.12 C-0.16 8.01, -0.69 6.42, -0.33 5.17 C0.03 3.91, 1.55 2.45, 2.6 1.58 C3.66 0.7, 5.32 0.21, 6 -0.09 C6.69 -0.39, 6.63 -0.26, 6.71 -0.21 M5.15 0.54 C6.36 0.13, 7.83 -0.34, 8.81 0.37 C9.79 1.07, 10.69 3.34, 11.05 4.78 C11.41 6.22, 11.44 7.86, 10.96 9.01 C10.48 10.16, 9.17 11.23, 8.16 11.65 C7.16 12.07, 6.12 11.86, 4.93 11.53 C3.74 11.21, 1.93 10.7, 1.01 9.67 C0.1 8.65, -0.58 6.74, -0.54 5.4 C-0.5 4.06, 0.46 2.54, 1.25 1.65 C2.04 0.75, 3.52 0.2, 4.19 0.04 C4.87 -0.11, 5.28 0.6, 5.31 0.69" stroke="none" stroke-width="0" fill="#868e96"></path><path d="M4.76 0.26 C5.8 0.13, 7.16 0.44, 8.17 1.11 C9.19 1.79, 10.38 3.1, 10.83 4.3 C11.28 5.51, 11.37 7.21, 10.88 8.35 C10.39 9.5, 9.02 10.58, 7.91 11.17 C6.79 11.77, 5.35 12.1, 4.19 11.91 C3.04 11.71, 1.68 10.94, 0.97 10 C0.26 9.06, -0.13 7.64, -0.07 6.26 C-0.01 4.89, 0.43 2.83, 1.32 1.77 C2.21 0.71, 4.56 0.16, 5.26 -0.1 C5.97 -0.36, 5.49 0.15, 5.54 0.2 M4.83 0.66 C5.99 0.41, 7.51 0.11, 8.55 0.76 C9.6 1.4, 10.82 3.31, 11.1 4.53 C11.38 5.74, 10.82 6.79, 10.23 8.05 C9.63 9.31, 8.47 11.52, 7.51 12.09 C6.55 12.66, 5.41 11.99, 4.44 11.48 C3.47 10.96, 2.36 10, 1.67 8.98 C0.98 7.97, 0.4 6.61, 0.32 5.41 C0.24 4.2, 0.38 2.59, 1.18 1.75 C1.99 0.91, 4.46 0.69, 5.14 0.37 C5.81 0.04, 5.22 -0.22, 5.22 -0.18" stroke="#000000" stroke-width="1" fill="none"></path></g><g stroke-linecap="round" transform="translate(1089.7986233093723 381.14188459805985) rotate(0 5.61305157708091 6.091879242227776)"><path d="M6.71 0.09 C7.83 0.3, 8.98 1.74, 9.76 2.84 C10.54 3.94, 11.44 5.53, 11.4 6.7 C11.37 7.88, 10.43 8.97, 9.54 9.9 C8.65 10.82, 7.26 11.99, 6.06 12.24 C4.86 12.49, 3.38 12.06, 2.33 11.4 C1.28 10.73, 0.02 9.46, -0.23 8.23 C-0.47 7, 0.33 5.28, 0.86 3.99 C1.4 2.71, 1.88 1.23, 2.98 0.53 C4.07 -0.16, 6.66 -0.08, 7.43 -0.17 C8.21 -0.27, 7.76 -0.17, 7.62 -0.04 M6.6 -0.46 C7.7 -0.35, 9.06 1.45, 9.85 2.61 C10.63 3.77, 11.31 5.28, 11.32 6.51 C11.34 7.74, 10.6 9.16, 9.92 9.99 C9.25 10.82, 8.44 11.28, 7.26 11.49 C6.08 11.7, 4.05 11.87, 2.83 11.27 C1.6 10.67, 0.36 9.12, -0.09 7.89 C-0.54 6.65, -0.23 5.02, 0.12 3.86 C0.48 2.71, 0.89 1.51, 2.02 0.95 C3.14 0.4, 6.22 0.68, 6.86 0.54 C7.5 0.39, 5.91 0.01, 5.87 0.06" stroke="none" stroke-width="0" fill="#868e96"></path><path d="M3.76 0.32 C4.85 -0.09, 6.73 0.09, 7.91 0.61 C9.09 1.14, 10.36 2.36, 10.83 3.49 C11.3 4.62, 11.12 6.16, 10.75 7.42 C10.38 8.67, 9.57 10.18, 8.59 11.01 C7.62 11.84, 6.06 12.42, 4.87 12.38 C3.69 12.35, 2.35 11.82, 1.51 10.81 C0.67 9.81, -0.11 7.76, -0.16 6.36 C-0.21 4.95, 0.41 3.43, 1.21 2.4 C2.01 1.38, 4 0.65, 4.63 0.21 C5.26 -0.23, 5.03 -0.26, 4.99 -0.23 M5.44 -0.39 C6.65 -0.55, 8.51 0.66, 9.39 1.48 C10.28 2.3, 10.63 3.15, 10.72 4.53 C10.82 5.9, 10.48 8.59, 9.98 9.74 C9.48 10.88, 8.69 11.15, 7.73 11.4 C6.77 11.64, 5.36 11.63, 4.24 11.22 C3.11 10.8, 1.74 9.96, 0.96 8.91 C0.19 7.85, -0.58 6.09, -0.4 4.88 C-0.21 3.68, 1.04 2.53, 2.07 1.66 C3.1 0.8, 5.19 -0.06, 5.79 -0.32 C6.4 -0.57, 5.69 -0.07, 5.69 0.12" stroke="#000000" stroke-width="1" fill="none"></path></g><g stroke-linecap="round" transform="translate(1090.4474815254387 409.91061116936623) rotate(357.5021844865888 5.61305157708091 6.091879242227776)"><path d="M6.35 0.5 C7.55 0.71, 9.39 1.63, 10.18 2.52 C10.96 3.42, 11.16 4.56, 11.07 5.84 C10.98 7.12, 10.44 9.12, 9.64 10.2 C8.84 11.28, 7.51 12.08, 6.28 12.33 C5.05 12.58, 3.17 12.36, 2.24 11.7 C1.31 11.04, 1.03 9.7, 0.7 8.37 C0.37 7.05, -0.17 5.11, 0.26 3.77 C0.68 2.44, 2.09 1.04, 3.25 0.37 C4.42 -0.31, 6.68 -0.23, 7.25 -0.27 C7.82 -0.31, 6.71 -0.09, 6.66 0.13 M6.61 0.75 C7.72 1.07, 9.21 1.92, 9.95 2.83 C10.69 3.74, 10.98 5.12, 11.05 6.21 C11.12 7.3, 11.13 8.45, 10.36 9.38 C9.6 10.31, 7.79 11.57, 6.45 11.81 C5.12 12.06, 3.39 11.5, 2.36 10.83 C1.32 10.17, 0.69 8.95, 0.26 7.83 C-0.18 6.7, -0.74 5.16, -0.23 4.09 C0.27 3.01, 2.23 2.05, 3.28 1.37 C4.33 0.68, 5.48 0.13, 6.07 -0.03 C6.66 -0.2, 6.81 0.33, 6.84 0.38" stroke="none" stroke-width="0" fill="#868e96"></path><path d="M6.05 0.04 C7.29 0.05, 8.93 0.87, 9.74 1.75 C10.56 2.63, 10.91 4.03, 10.95 5.33 C10.99 6.63, 10.68 8.4, 9.99 9.55 C9.29 10.7, 7.96 11.82, 6.8 12.24 C5.65 12.65, 4.16 12.68, 3.07 12.04 C1.99 11.4, 0.76 9.68, 0.31 8.39 C-0.15 7.1, -0.03 5.51, 0.36 4.29 C0.76 3.08, 1.63 1.89, 2.68 1.11 C3.74 0.33, 6.1 -0.19, 6.7 -0.4 C7.31 -0.61, 6.36 -0.3, 6.3 -0.16 M6.85 0.07 C7.97 0.21, 8.95 0.56, 9.61 1.68 C10.27 2.79, 10.73 5.44, 10.81 6.78 C10.9 8.12, 10.74 8.91, 10.12 9.71 C9.5 10.51, 8.27 11.35, 7.07 11.59 C5.87 11.83, 4.13 11.77, 2.91 11.17 C1.69 10.57, 0.18 9.15, -0.25 7.98 C-0.67 6.8, -0.19 5.4, 0.36 4.14 C0.9 2.87, 1.96 1.05, 3.02 0.38 C4.08 -0.28, 6.08 0.12, 6.71 0.14 C7.35 0.16, 6.79 0.43, 6.81 0.48" stroke="#000000" stroke-width="1" fill="none"></path></g><g transform="translate(1032.3721299734088 431.50075276820905) rotate(0 60.29874496153468 11.79758053595242)"><text x="60.29874496153468" y="17.05842756013272" font-family="Virgil, Segoe UI Emoji" font-size="17.4778970902999px" fill="#000000" text-anchor="middle" style="white-space: pre;" direction="ltr" dominant-baseline="alphabetic">Relational DB</text></g><g stroke-opacity="0.9" fill-opacity="0.9" stroke-linecap="round" transform="translate(587.8027557120499 122.01920182965694) rotate(0 34.84695248648285 100.89614054636911)"><path d="M1.51 0.25 L68.08 -1.53 L68.77 201.17 L-0.84 200.01" stroke="none" stroke-width="0" fill="#eeeeee"></path><path d="M0 0 C23.09 -1.38, 40.58 1.56, 69.69 0 M0 0 C24.85 0.37, 49.44 0.22, 69.69 0 M69.69 0 C70.18 63.01, 70.09 124.41, 69.69 201.79 M69.69 0 C69.85 58.42, 68.71 116.22, 69.69 201.79 M69.69 201.79 C54.64 202.25, 35.08 201.26, 0 201.79 M69.69 201.79 C47.7 202.67, 26.8 201.32, 0 201.79 M0 201.79 C1.1 146.99, 2.8 92.39, 0 0 M0 201.79 C-1.77 128.48, -2.52 56.4, 0 0" stroke="#000000" stroke-width="1" fill="none"></path></g><g stroke-linecap="round" transform="translate(630.934501304668 191.90365284212277) rotate(0 9.231590669814466 8.947541726127838)"><path d="M7.93 -0.33 C9.86 -0.65, 12.76 0.5, 14.41 1.7 C16.06 2.9, 17.29 5.02, 17.83 6.85 C18.36 8.68, 18.32 11.07, 17.61 12.69 C16.9 14.32, 15.4 15.79, 13.56 16.59 C11.72 17.4, 8.5 17.97, 6.57 17.52 C4.64 17.06, 3.06 15.44, 1.97 13.88 C0.88 12.32, -0.17 9.96, 0.01 8.14 C0.18 6.32, 1.67 4.26, 3.02 2.95 C4.38 1.63, 7.27 0.78, 8.15 0.26 C9.03 -0.25, 8.27 -0.27, 8.3 -0.16 M9.71 0.38 C11.65 0.24, 13.78 0.46, 15.23 1.77 C16.69 3.08, 18.13 6.32, 18.46 8.22 C18.79 10.12, 18.2 11.53, 17.21 13.16 C16.23 14.79, 14.52 17.42, 12.56 18.01 C10.6 18.6, 7.41 17.44, 5.45 16.69 C3.49 15.93, 1.71 14.97, 0.78 13.47 C-0.15 11.97, -0.52 9.55, -0.14 7.69 C0.23 5.84, 1.45 3.72, 3.02 2.36 C4.6 1, 8.33 -0.17, 9.31 -0.45 C10.3 -0.72, 8.92 0.55, 8.95 0.72" stroke="none" stroke-width="0" fill="#868e96"></path><path d="M11.32 0.11 C13.13 0.44, 15.6 1.66, 16.78 3.25 C17.97 4.84, 18.51 7.59, 18.43 9.65 C18.36 11.7, 17.78 14.19, 16.34 15.58 C14.9 16.97, 11.93 17.9, 9.81 18 C7.7 18.11, 5.25 17.32, 3.66 16.21 C2.08 15.1, 0.71 13.13, 0.29 11.34 C-0.13 9.55, 0.32 7.28, 1.16 5.47 C2 3.65, 3.6 1.35, 5.34 0.44 C7.07 -0.47, 10.5 0.01, 11.58 0 C12.66 -0.02, 11.79 0.13, 11.83 0.35 M6.57 0.55 C8.36 0.1, 11.34 0.7, 13.27 1.42 C15.2 2.15, 17.39 3.32, 18.15 4.92 C18.91 6.51, 18.55 9.09, 17.82 10.99 C17.1 12.89, 15.44 15.08, 13.8 16.31 C12.16 17.53, 9.87 18.49, 7.97 18.35 C6.06 18.21, 3.57 16.87, 2.37 15.46 C1.16 14.05, 0.81 11.93, 0.73 9.87 C0.64 7.81, 0.89 4.67, 1.86 3.1 C2.84 1.52, 5.56 0.85, 6.55 0.41 C7.55 -0.02, 7.78 0.47, 7.83 0.48" stroke="#000000" stroke-width="1" fill="none"></path></g><g stroke-linecap="round" transform="translate(594.8707423910826 189.01171766697195) rotate(0 9.231590669814466 8.947541726127838)"><path d="M10.64 0.27 C12.53 0.56, 14.59 1.98, 15.88 3.41 C17.18 4.84, 18.26 7.06, 18.4 8.85 C18.54 10.64, 18.02 12.68, 16.72 14.14 C15.42 15.6, 12.57 17.22, 10.61 17.61 C8.66 17.99, 6.67 17.4, 5.01 16.47 C3.34 15.54, 1.3 13.71, 0.62 12.02 C-0.06 10.32, 0.35 8.04, 0.92 6.3 C1.49 4.55, 2.49 2.63, 4.06 1.54 C5.62 0.46, 9.2 -0.02, 10.31 -0.22 C11.41 -0.41, 10.63 0.22, 10.69 0.38 M8.96 -0.47 C10.81 -0.58, 13.56 1.39, 15.14 2.59 C16.71 3.8, 17.97 4.9, 18.39 6.78 C18.82 8.66, 18.74 12.2, 17.69 13.86 C16.65 15.51, 14.11 16.07, 12.14 16.71 C10.17 17.34, 7.75 18.09, 5.89 17.65 C4.03 17.21, 2.04 15.7, 1 14.08 C-0.04 12.47, -0.68 10.02, -0.34 7.97 C0 5.91, 1.54 2.99, 3.02 1.75 C4.5 0.51, 7.53 0.85, 8.55 0.54 C9.57 0.22, 8.95 -0.12, 9.12 -0.15" stroke="none" stroke-width="0" fill="#868e96"></path><path d="M7.24 -0.24 C9.08 -0.72, 11.61 0.01, 13.44 1.03 C15.27 2.05, 17.51 4.08, 18.23 5.87 C18.94 7.65, 18.43 9.99, 17.7 11.74 C16.97 13.48, 15.47 15.31, 13.86 16.32 C12.25 17.33, 9.87 17.96, 8.03 17.78 C6.19 17.59, 4.13 16.69, 2.82 15.22 C1.5 13.75, 0.31 10.94, 0.14 8.94 C-0.03 6.94, 0.49 4.73, 1.78 3.22 C3.07 1.72, 6.69 0.39, 7.87 -0.08 C9.05 -0.56, 8.93 0.22, 8.88 0.38 M9.29 0.42 C11.35 0.21, 14.29 0.57, 15.77 1.67 C17.24 2.77, 17.99 5.05, 18.15 7.02 C18.3 8.98, 17.7 11.64, 16.68 13.47 C15.67 15.29, 13.88 17.26, 12.06 17.97 C10.24 18.68, 7.46 18.43, 5.75 17.72 C4.05 17.01, 2.76 15.55, 1.82 13.71 C0.89 11.88, -0.01 8.65, 0.16 6.72 C0.33 4.79, 1.19 3.23, 2.84 2.13 C4.49 1.02, 9.06 0.52, 10.07 0.1 C11.07 -0.32, 9.04 -0.49, 8.89 -0.39" stroke="#000000" stroke-width="1" fill="none"></path></g><g stroke-linecap="round" transform="translate(631.426256801439 242.50329443889962) rotate(0 9.231590669814466 8.947541726127838)"><path d="M7.23 0.53 C9.04 0.07, 11.87 0.44, 13.68 1.25 C15.5 2.06, 17.51 3.63, 18.14 5.38 C18.78 7.14, 18.18 9.96, 17.51 11.78 C16.85 13.6, 15.78 15.34, 14.16 16.31 C12.53 17.28, 9.65 17.81, 7.73 17.59 C5.82 17.37, 4.03 16.38, 2.68 15 C1.32 13.62, -0.19 11.31, -0.37 9.3 C-0.55 7.29, 0.28 4.46, 1.6 2.94 C2.91 1.42, 6.43 0.65, 7.51 0.16 C8.59 -0.33, 8.02 -0.19, 8.08 -0.02 M10.49 0.68 C12.4 0.79, 14.71 1.01, 16.1 2.41 C17.5 3.82, 18.82 7.19, 18.84 9.09 C18.85 10.98, 17.5 12.29, 16.18 13.76 C14.86 15.23, 12.85 17.3, 10.94 17.91 C9.02 18.52, 6.47 18.27, 4.69 17.43 C2.91 16.58, 1.01 14.76, 0.27 12.83 C-0.47 10.9, -0.31 7.67, 0.26 5.86 C0.84 4.04, 2.02 2.98, 3.72 1.96 C5.41 0.94, 9.25 0.12, 10.44 -0.26 C11.62 -0.64, 10.88 -0.39, 10.84 -0.31" stroke="none" stroke-width="0" fill="#868e96"></path><path d="M8.46 0.08 C10.4 -0.04, 13.49 0.91, 15.05 2.04 C16.6 3.16, 17.45 5.06, 17.8 6.82 C18.16 8.59, 17.99 10.92, 17.2 12.62 C16.41 14.32, 14.71 16.17, 13.04 17.03 C11.36 17.88, 9.03 18.34, 7.15 17.76 C5.28 17.19, 2.97 15.25, 1.77 13.59 C0.57 11.93, -0.22 9.67, -0.05 7.81 C0.11 5.94, 1.25 3.67, 2.76 2.41 C4.28 1.14, 8.08 0.58, 9.03 0.2 C9.99 -0.19, 8.52 0.07, 8.48 0.12 M10.66 -0.53 C12.54 -0.62, 14.47 0.69, 15.7 2.15 C16.93 3.6, 17.89 6.1, 18.04 8.21 C18.18 10.32, 17.7 13.14, 16.58 14.79 C15.46 16.44, 13.12 17.65, 11.33 18.1 C9.54 18.55, 7.6 18.48, 5.84 17.48 C4.07 16.48, 1.76 13.92, 0.74 12.11 C-0.28 10.3, -0.95 8.37, -0.29 6.61 C0.37 4.86, 3.04 2.77, 4.69 1.59 C6.35 0.4, 8.79 -0.25, 9.66 -0.52 C10.53 -0.78, 9.87 -0.13, 9.9 0" stroke="#000000" stroke-width="1" fill="none"></path></g><g stroke-linecap="round" transform="translate(630.7445393366036 140.3187122349591) rotate(0 9.231590669814466 8.947541726127838)"><path d="M9.97 0.14 C11.94 0.06, 14.69 0.9, 16.03 2.22 C17.37 3.54, 17.83 6.12, 17.99 8.04 C18.16 9.96, 18.07 12.18, 17 13.74 C15.94 15.3, 13.49 16.81, 11.62 17.4 C9.75 17.99, 7.63 18.01, 5.78 17.27 C3.93 16.53, 1.49 14.8, 0.5 12.98 C-0.49 11.15, -0.71 8.18, -0.18 6.3 C0.36 4.41, 1.93 2.76, 3.68 1.67 C5.43 0.58, 9.21 -0.01, 10.35 -0.22 C11.49 -0.42, 10.49 0.26, 10.51 0.44 M7.9 -0.34 C9.79 -0.74, 12.77 0.9, 14.38 1.86 C15.99 2.83, 17.03 3.7, 17.56 5.45 C18.08 7.21, 18.2 10.43, 17.5 12.41 C16.8 14.38, 15.12 16.34, 13.37 17.3 C11.62 18.25, 8.92 18.67, 7.01 18.14 C5.09 17.61, 3.16 15.59, 1.9 14.12 C0.65 12.65, -0.58 11.21, -0.51 9.32 C-0.44 7.42, 0.86 4.36, 2.33 2.74 C3.79 1.11, 7.38 0.08, 8.28 -0.44 C9.17 -0.97, 7.81 -0.75, 7.72 -0.41" stroke="none" stroke-width="0" fill="#868e96"></path><path d="M7.59 0.64 C9.33 0.12, 11.4 0.33, 13.02 1.1 C14.64 1.87, 16.5 3.54, 17.33 5.26 C18.16 6.99, 18.46 9.58, 18.02 11.47 C17.57 13.36, 16.28 15.62, 14.66 16.61 C13.03 17.59, 10.32 17.69, 8.29 17.38 C6.25 17.07, 3.8 16.12, 2.42 14.77 C1.05 13.42, 0.09 11.11, 0.04 9.28 C0 7.45, 1.01 5.31, 2.17 3.78 C3.33 2.25, 6.05 0.76, 7 0.1 C7.95 -0.55, 7.72 -0.28, 7.87 -0.14 M10.3 -0.55 C12.04 -0.34, 14.34 1.17, 15.69 2.78 C17.03 4.4, 18.26 7.15, 18.38 9.17 C18.51 11.19, 17.52 13.41, 16.43 14.92 C15.35 16.42, 13.79 17.97, 11.86 18.22 C9.93 18.47, 6.84 17.38, 4.86 16.43 C2.89 15.47, 0.65 14.18, 0.01 12.49 C-0.63 10.8, 0.4 8.22, 1.02 6.27 C1.64 4.32, 2.21 1.85, 3.74 0.78 C5.26 -0.29, 9.1 0.05, 10.17 -0.15 C11.25 -0.35, 10.07 -0.51, 10.18 -0.4" stroke="#000000" stroke-width="1" fill="none"></path></g><g stroke-linecap="round"><g transform="translate(607.9398746352954 207.22680558702024) rotate(0 13.341544512779137 18.79098838559517)"><path d="M0 0 C7.13 10.25, 15.24 20.98, 26.68 37.58 M0 0 C6.03 8.65, 12.23 17.67, 26.68 37.58" stroke="#000000" stroke-width="1" fill="none"></path></g><g transform="translate(607.9398746352954 207.22680558702024) rotate(0 13.341544512779137 18.79098838559517)"><path d="M7.63 24.62 C12.71 28.26, 18.78 32.42, 26.68 37.58 M7.63 24.62 C11.87 27.6, 16.33 30.98, 26.68 37.58" stroke="#000000" stroke-width="1" fill="none"></path></g><g transform="translate(607.9398746352954 207.22680558702024) rotate(0 13.341544512779137 18.79098838559517)"><path d="M20.42 15.4 C22.09 21.45, 24.75 28.06, 26.68 37.58 M20.42 15.4 C21.75 20.45, 23.27 25.94, 26.68 37.58" stroke="#000000" stroke-width="1" fill="none"></path></g></g><mask></mask><g stroke-linecap="round"><g transform="translate(613.9251665209288 198.23473987801964) rotate(0 8.305651919865568 0.6603664148592543)"><path d="M0 0 C4.25 0.93, 6.28 0.79, 16.61 1.32 M0 0 C3.68 0.6, 7.59 0.71, 16.61 1.32" stroke="#000000" stroke-width="1" fill="none"></path></g><g transform="translate(613.9251665209288 198.23473987801964) rotate(0 8.305651919865568 0.6603664148592543)"><path d="M8.61 3.66 C10.68 3.5, 11.63 2.81, 16.61 1.32 M8.61 3.66 C10.39 3.29, 12.28 2.67, 16.61 1.32" stroke="#000000" stroke-width="1" fill="none"></path></g><g transform="translate(613.9251665209288 198.23473987801964) rotate(0 8.305651919865568 0.6603664148592543)"><path d="M8.98 -2.03 C10.97 -1.01, 11.84 -0.52, 16.61 1.32 M8.98 -2.03 C10.67 -1.13, 12.47 -0.47, 16.61 1.32" stroke="#000000" stroke-width="1" fill="none"></path></g></g><mask></mask><g stroke-linecap="round"><g transform="translate(609.4616696958649 189.780633478634) rotate(0 12.700208522359219 -16.264867835951605)"><path d="M0 0 C6.99 -9.87, 14.81 -20.52, 25.4 -32.53 M0 0 C7.53 -9.34, 14.21 -18.94, 25.4 -32.53" stroke="#000000" stroke-width="1" fill="none"></path></g><g transform="translate(609.4616696958649 189.780633478634) rotate(0 12.700208522359219 -16.264867835951605)"><path d="M18.8 -12.98 C20.04 -18.75, 22.03 -25.39, 25.4 -32.53 M18.8 -12.98 C20.9 -18.51, 22.16 -24.37, 25.4 -32.53" stroke="#000000" stroke-width="1" fill="none"></path></g><g transform="translate(609.4616696958649 189.780633478634) rotate(0 12.700208522359219 -16.264867835951605)"><path d="M7.78 -21.79 C12.47 -24.88, 17.87 -28.79, 25.4 -32.53 M7.78 -21.79 C13.05 -24.83, 17.49 -28.14, 25.4 -32.53" stroke="#000000" stroke-width="1" fill="none"></path></g></g><mask></mask><g transform="translate(591.1497081985328 278.4116051549705) rotate(0 31.5 20)"><text x="31.5" y="14.483016913171605" font-family="Virgil, Segoe UI Emoji" font-size="14.751291676011752px" fill="#000000" text-anchor="middle" style="white-space: pre;" direction="ltr" dominant-baseline="alphabetic">Load</text><text x="31.5" y="34.4830169131716" font-family="Virgil, Segoe UI Emoji" font-size="14.751291676011752px" fill="#000000" text-anchor="middle" style="white-space: pre;" direction="ltr" dominant-baseline="alphabetic">Balancer</text></g><g stroke-linecap="round" transform="translate(1032.4226344643891 10) rotate(0 60.24824047055438 44.11983981361399)"><path d="M22.06 0 C42.64 1.51, 67.39 -1, 98.44 0 C112.68 -2.11, 121.17 5.76, 120.5 22.06 C123.42 33.2, 120.8 46.4, 120.5 66.18 C122.04 79.12, 113.99 84.8, 98.44 88.24 C75.49 86.65, 57.43 85.6, 22.06 88.24 C8.64 86.24, -3.23 80.35, 0 66.18 C0.85 51.84, 0.46 34.98, 0 22.06 C2.8 7.81, 5.35 -0.36, 22.06 0" stroke="none" stroke-width="0" fill="#eeeeee"></path><path d="M22.06 0 C47.59 0.71, 75.28 -0.57, 98.44 0 M22.06 0 C44.27 -1.01, 66.89 0.43, 98.44 0 M98.44 0 C113.42 -1.2, 121.52 8.9, 120.5 22.06 M98.44 0 C111.89 -1.81, 119.44 8.09, 120.5 22.06 M120.5 22.06 C121.89 32.99, 119.6 43.35, 120.5 66.18 M120.5 22.06 C121.16 37.7, 120.39 53.89, 120.5 66.18 M120.5 66.18 C119.99 82.49, 111.62 89.26, 98.44 88.24 M120.5 66.18 C118.49 78.86, 112.79 88.51, 98.44 88.24 M98.44 88.24 C74.55 86.2, 45.58 86.58, 22.06 88.24 M98.44 88.24 C82.03 88.03, 65.05 88.38, 22.06 88.24 M22.06 88.24 C8.67 87.45, 0.74 82.39, 0 66.18 M22.06 88.24 C5.72 88.75, -0.4 82.67, 0 66.18 M0 66.18 C1.91 52.14, -0.59 36.92, 0 22.06 M0 66.18 C0.18 52.21, -0.49 39.05, 0 22.06 M0 22.06 C-1.53 9.26, 6.11 0.75, 22.06 0 M0 22.06 C1.35 6.42, 8.06 -2.18, 22.06 0" stroke="#000000" stroke-width="1" fill="none"></path></g><g stroke-linecap="round" transform="translate(1040.1536033743298 16.931213505461756) rotate(0 12.52950133679667 4.9318249942710395)"><path d="M0.66 -0.39 L25.43 0.75 L24.35 10.09 L-0.18 10.64" stroke="none" stroke-width="0" fill="#868e96"></path><path d="M0 0 C5.88 -0.56, 11.5 0.32, 25.06 0 M0 0 C8.84 0.48, 17.61 -0.22, 25.06 0 M25.06 0 C24.71 3.24, 25.26 6.71, 25.06 9.86 M25.06 0 C24.98 3.49, 24.86 7.46, 25.06 9.86 M25.06 9.86 C16.62 9.81, 8.73 9.69, 0 9.86 M25.06 9.86 C15.09 9.49, 5.92 9.99, 0 9.86 M0 9.86 C0.39 6.09, -0.47 2.89, 0 0 M0 9.86 C0.04 7.84, -0.07 5.79, 0 0" stroke="#000000" stroke-width="1" fill="none"></path></g><g stroke-linecap="round" transform="translate(1080.0347395442154 16.521684178200758) rotate(0 33.05655671835723 5.33170269650924)"><path d="M2.67 0 C21.44 -1.09, 41.37 -0.72, 63.45 0 C64.29 -1.25, 68.46 3.28, 66.11 2.67 C66.42 3.85, 66.29 5.05, 66.11 8 C64.96 10.46, 66.62 8.2, 63.45 10.66 C50.08 8.48, 32.51 9.53, 2.67 10.66 C1.36 8.16, 2.28 9.83, 0 8 C0.54 6.53, -0.38 4.82, 0 2.67 C1.01 -0.3, -0.26 -0.34, 2.67 0" stroke="none" stroke-width="0" fill="#ced4da"></path><path d="M2.67 0 C21.37 0.5, 40.73 0.03, 63.45 0 M2.67 0 C17.18 -0.54, 31.81 0.14, 63.45 0 M63.45 0 C64.68 -0.79, 65.65 1.21, 66.11 2.67 M63.45 0 C64.73 0.8, 65.42 1.52, 66.11 2.67 M66.11 2.67 C66.29 4.18, 65.98 5.82, 66.11 8 M66.11 2.67 C66.08 3.98, 66.01 5.15, 66.11 8 M66.11 8 C65.24 8.9, 65.07 10.78, 63.45 10.66 M66.11 8 C66.5 9.97, 65.11 11.59, 63.45 10.66 M63.45 10.66 C50.36 10.29, 38.06 10.56, 2.67 10.66 M63.45 10.66 C42.77 10.71, 21.61 11.28, 2.67 10.66 M2.67 10.66 C0.18 10.89, -0.18 10.55, 0 8 M2.67 10.66 C1.07 10.17, -1.04 10.77, 0 8 M0 8 C0.06 6.67, 0 5.02, 0 2.67 M0 8 C-0.1 6.51, -0.08 4.81, 0 2.67 M0 2.67 C0.59 0.48, 1.2 -0.95, 2.67 0 M0 2.67 C0.07 0.67, 0.06 -0.89, 2.67 0" stroke="#000000" stroke-width="1" fill="none"></path></g><g stroke-linecap="round"><g transform="translate(1066.773597590715 22.27232261984784) rotate(0 7.0553222576860435 -0.0643346287002089)"><path d="M0.18 0.28 C2.57 0.2, 11.7 -0.48, 14.03 -0.47 M-0.38 -0.06 C1.95 -0.06, 11.19 0.13, 13.56 0.05" stroke="#000000" stroke-width="1" fill="none"></path></g><g transform="translate(1066.773597590715 22.27232261984784) rotate(0 7.0553222576860435 -0.0643346287002089)"><path d="M6.94 2.48 C8.74 1.83, 9.96 1.33, 13.56 0.05 M6.94 2.48 C9.55 1.71, 11.89 0.51, 13.56 0.05" stroke="#000000" stroke-width="1" fill="none"></path></g><g transform="translate(1066.773597590715 22.27232261984784) rotate(0 7.0553222576860435 -0.0643346287002089)"><path d="M6.93 -2.34 C8.73 -1.82, 9.96 -1.13, 13.56 0.05 M6.93 -2.34 C9.55 -1.28, 11.89 -0.64, 13.56 0.05" stroke="#000000" stroke-width="1" fill="none"></path></g></g><mask></mask><g stroke-linecap="round" transform="translate(1040.5801395900514 30.153836192804874) rotate(0 12.52950133679667 4.9318249942710395)"><path d="M-0.18 0.77 L25.21 -0.43 L24.16 10.73 L-0.06 9.47" stroke="none" stroke-width="0" fill="#868e96"></path><path d="M0 0 C7.73 0.16, 17.52 0.15, 25.06 0 M0 0 C5.74 -0.49, 11.8 0.06, 25.06 0 M25.06 0 C25.36 2.44, 24.8 4.73, 25.06 9.86 M25.06 0 C25.22 3.48, 25.03 7.1, 25.06 9.86 M25.06 9.86 C18.69 8.9, 10.42 9.61, 0 9.86 M25.06 9.86 C17.2 10.29, 8.95 9.42, 0 9.86 M0 9.86 C-0.39 7.76, 0.27 5.36, 0 0 M0 9.86 C0.06 6.3, -0.21 2.41, 0 0" stroke="#000000" stroke-width="1" fill="none"></path></g><g stroke-linecap="round" transform="translate(1080.4612757599343 30.35009741220574) rotate(0 33.05655671835723 5.33170269650924)"><path d="M2.67 0 C20.55 2.77, 33.36 0.87, 63.45 0 C65.97 1.11, 64.83 1.5, 66.11 2.67 C66.45 3.1, 65.63 4.47, 66.11 8 C63.67 10.71, 63.78 8.33, 63.45 10.66 C48.4 9.96, 28.58 9.69, 2.67 10.66 C-1.36 12.68, 0.33 8.33, 0 8 C-0.33 6.36, -0.57 4.96, 0 2.67 C-0.58 -0.64, 2.66 -0.5, 2.67 0" stroke="none" stroke-width="0" fill="#ced4da"></path><path d="M2.67 0 C20.86 0.09, 36.83 0.47, 63.45 0 M2.67 0 C25.38 0.4, 48.33 0.59, 63.45 0 M63.45 0 C64.62 0.55, 65.92 0.29, 66.11 2.67 M63.45 0 C64.44 0.82, 66.2 0.38, 66.11 2.67 M66.11 2.67 C65.85 4.54, 66.31 6.34, 66.11 8 M66.11 2.67 C66.07 4.55, 66.13 6.43, 66.11 8 M66.11 8 C66.01 10.58, 64.24 9.73, 63.45 10.66 M66.11 8 C65.2 8.82, 65.08 9.66, 63.45 10.66 M63.45 10.66 C45.17 11.23, 24.89 10.94, 2.67 10.66 M63.45 10.66 C40.57 11.12, 17.94 10.52, 2.67 10.66 M2.67 10.66 C-0.02 11.53, -0.06 9.39, 0 8 M2.67 10.66 C0.07 10.86, 1.05 9.72, 0 8 M0 8 C0.23 5.88, 0.25 4.02, 0 2.67 M0 8 C0.03 6.07, -0.01 4.37, 0 2.67 M0 2.67 C-0.72 0.11, 1.03 -0.39, 2.67 0 M0 2.67 C-0.64 0.74, 0.21 0.21, 2.67 0" stroke="#000000" stroke-width="1" fill="none"></path></g><g stroke-linecap="round"><g transform="translate(1066.4753959495997 35.76922700437126) rotate(0 7.052936309620577 0.013372553795335307)"><path d="M0.08 -0.33 C2.46 -0.33, 12.1 0.47, 14.39 0.45 M-0.55 0.69 C1.78 0.51, 11.79 -0.17, 14.1 -0.29" stroke="#000000" stroke-width="1" fill="none"></path></g><g transform="translate(1066.4753959495997 35.76922700437126) rotate(0 7.052936309620577 0.013372553795335307)"><path d="M7.63 2.52 C9.44 1.81, 11.95 0.56, 14.1 -0.29 M7.63 2.52 C8.99 2.01, 10.39 1.36, 14.1 -0.29" stroke="#000000" stroke-width="1" fill="none"></path></g><g transform="translate(1066.4753959495997 35.76922700437126) rotate(0 7.052936309620577 0.013372553795335307)"><path d="M7.34 -2.29 C9.26 -1.49, 11.86 -1.24, 14.1 -0.29 M7.34 -2.29 C8.75 -1.74, 10.22 -1.32, 14.1 -0.29" stroke="#000000" stroke-width="1" fill="none"></path></g></g><mask></mask><g stroke-linecap="round" transform="translate(1041.166626886664 57.80628812302734) rotate(0 12.52950133679667 4.9318249942710395)"><path d="M-0.06 -0.39 L24.35 0.17 L25.97 9.81 L0.58 9.9" stroke="none" stroke-width="0" fill="#868e96"></path><path d="M0 0 C8.63 -0.61, 14.93 -0.52, 25.06 0 M0 0 C8.02 0.19, 16.55 -0.39, 25.06 0 M25.06 0 C24.88 2.6, 24.73 4.51, 25.06 9.86 M25.06 0 C24.86 2.17, 24.83 3.87, 25.06 9.86 M25.06 9.86 C18.1 9.81, 11.61 8.92, 0 9.86 M25.06 9.86 C19.81 9.32, 14.76 9.99, 0 9.86 M0 9.86 C-0.23 7.38, 0.33 4.19, 0 0 M0 9.86 C0.05 6.58, -0.21 3.72, 0 0" stroke="#000000" stroke-width="1" fill="none"></path></g><g stroke-linecap="round" transform="translate(1081.0477630565522 57.69965406909682) rotate(0 33.05655671835723 5.33170269650924)"><path d="M2.67 0 C20.78 0.27, 38.96 -1.49, 63.45 0 C65.91 1.4, 63.65 -0.79, 66.11 2.67 C65.66 3.35, 65.94 5.41, 66.11 8 C63.61 12.06, 65.28 10.45, 63.45 10.66 C46.04 9.83, 27.73 12.29, 2.67 10.66 C-0.3 9.51, -0.34 7.73, 0 8 C0.49 6.22, 0.15 4.41, 0 2.67 C0.79 0.86, 2.18 -2.48, 2.67 0" stroke="none" stroke-width="0" fill="#ced4da"></path><path d="M2.67 0 C23.22 -0.29, 45.67 -0.27, 63.45 0 M2.67 0 C25.01 -0.47, 47.2 0.19, 63.45 0 M63.45 0 C65.3 -0.44, 66.75 0.15, 66.11 2.67 M63.45 0 C65.07 -1.07, 65.82 1.81, 66.11 2.67 M66.11 2.67 C65.89 3.82, 66.16 5.14, 66.11 8 M66.11 2.67 C65.98 4.23, 66 5.93, 66.11 8 M66.11 8 C65.99 8.9, 65.36 11.12, 63.45 10.66 M66.11 8 C65.77 10.7, 65.98 10.21, 63.45 10.66 M63.45 10.66 C43.2 10.27, 23.28 10.6, 2.67 10.66 M63.45 10.66 C47.77 10.73, 31.8 11.01, 2.67 10.66 M2.67 10.66 C1.8 10.61, 0.58 9.81, 0 8 M2.67 10.66 C0.79 11.68, -0.88 10.87, 0 8 M0 8 C-0.12 6.81, -0.26 5.47, 0 2.67 M0 8 C0.04 6.45, -0.05 4.99, 0 2.67 M0 2.67 C-0.59 1.08, 0.44 -0.36, 2.67 0 M0 2.67 C-0.55 1.93, 1.95 -0.17, 2.67 0" stroke="#000000" stroke-width="1" fill="none"></path></g><g stroke-linecap="round"><g transform="translate(1067.3062822665509 63.43450643426354) rotate(0 7.0553222576860435 -0.033044035962404905)"><path d="M-0.25 0.18 C2.11 0.3, 11.53 0.3, 13.87 0.31 M0.62 -0.21 C2.91 -0.2, 10.93 -0.38, 13.32 -0.46" stroke="#000000" stroke-width="1" fill="none"></path></g><g transform="translate(1067.3062822665509 63.43450643426354) rotate(0 7.0553222576860435 -0.033044035962404905)"><path d="M6.76 2.13 C8.49 1.36, 10.23 0.66, 13.32 -0.46 M6.76 2.13 C8.97 1.36, 11.43 0.24, 13.32 -0.46" stroke="#000000" stroke-width="1" fill="none"></path></g><g transform="translate(1067.3062822665509 63.43450643426354) rotate(0 7.0553222576860435 -0.033044035962404905)"><path d="M6.63 -2.69 C8.37 -2.28, 10.15 -1.79, 13.32 -0.46 M6.63 -2.69 C8.88 -1.75, 11.38 -1.16, 13.32 -0.46" stroke="#000000" stroke-width="1" fill="none"></path></g></g><mask></mask><g stroke-linecap="round"><g transform="translate(1053.2916687791555 40.323596134185436) rotate(0 0.016466917947127513 8.430320702785394)"><path d="M-0.24 0.38 C-0.25 3.21, -0.33 14.47, -0.3 17.16" stroke="#000000" stroke-width="1.5" fill="none" stroke-dasharray="1.5 7"></path></g></g><mask></mask><g stroke-linecap="round"><g transform="translate(1114.863449072411 41.87533333174588) rotate(0 0.04122912425191316 7.932500463995694)"><path d="M-0.33 0.3 C-0.3 2.83, -0.03 12.87, -0.03 15.53" stroke="#000000" stroke-width="1.5" fill="none" stroke-dasharray="1.5 7"></path></g></g><mask></mask><g transform="translate(1047.6853327011534 18.173613627740224) rotate(0 4.997772009974824 4.089086189979369)"><text x="4.997772009974799" y="5.912515735436836" font-family="Virgil, Segoe UI Emoji" font-size="6.057905466636109px" fill="#000000" text-anchor="middle" style="white-space: pre;" direction="ltr" dominant-baseline="alphabetic">Key</text></g><g transform="translate(1048.2911232478143 58.30695537996439) rotate(0 4.997772009974824 4.089086189979383)"><text x="4.997772009974799" y="5.912515735436836" font-family="Virgil, Segoe UI Emoji" font-size="6.057905466636109px" fill="#000000" text-anchor="middle" style="white-space: pre;" direction="ltr" dominant-baseline="alphabetic">Key</text></g><g transform="translate(1105.36746679261 18.46685727604813) rotate(0 7.723829469961061 4.089086189979369)"><text x="7.723829469961045" y="5.912515735436829" font-family="Virgil, Segoe UI Emoji" font-size="6.057905466636125px" fill="#000000" text-anchor="middle" style="white-space: pre;" direction="ltr" dominant-baseline="alphabetic">Value</text></g><g transform="translate(1105.064571519282 59.01245748562678) rotate(0 7.723829469961061 4.089086189979383)"><text x="7.723829469961045" y="5.912515735436829" font-family="Virgil, Segoe UI Emoji" font-size="6.057905466636125px" fill="#000000" text-anchor="middle" style="white-space: pre;" direction="ltr" dominant-baseline="alphabetic">Value</text></g><g transform="translate(1061.297461473031 68.8253288012188) rotate(0 31.373413461912605 13.988146129515144)"><text x="31.37341346191255" y="19.734843801147626" font-family="Virgil, Segoe UI Emoji" font-size="22.0359584435366px" fill="#000000" text-anchor="middle" style="white-space: pre;" direction="ltr" dominant-baseline="alphabetic">Cache</text></g><g stroke-linecap="round" transform="translate(275.5817240763213 56.53212325261296) rotate(0 51.38163725071803 18.33335413640637)"><path d="M9.17 0 C42.27 2.28, 76.74 0.02, 93.6 0 C102.54 -2.67, 103.23 3.32, 102.76 9.17 C105.2 11.89, 100.55 15.01, 102.76 27.5 C106.35 34.79, 100 37.29, 93.6 36.67 C70.1 34.29, 48.39 32.52, 9.17 36.67 C1.12 39.39, -2.01 30.45, 0 27.5 C2.75 21.39, 0.61 19.15, 0 9.17 C2.32 4.59, 3.92 -1.59, 9.17 0" stroke="none" stroke-width="0" fill="#ced4da"></path><path d="M9.17 0 C31.2 0.42, 51.55 -0.75, 93.6 0 M9.17 0 C35.58 -0.12, 62.44 0.02, 93.6 0 M93.6 0 C98.99 -0.96, 104.57 4.89, 102.76 9.17 M93.6 0 C99.38 0.44, 103.42 4.04, 102.76 9.17 M102.76 9.17 C101.99 14.25, 103.79 16.62, 102.76 27.5 M102.76 9.17 C102.99 12.97, 101.84 17.66, 102.76 27.5 M102.76 27.5 C103.13 31.69, 101.46 36.71, 93.6 36.67 M102.76 27.5 C102.57 33.42, 97.72 38.45, 93.6 36.67 M93.6 36.67 C67.98 35.67, 39.93 36.32, 9.17 36.67 M93.6 36.67 C74.33 37.16, 56.05 36.68, 9.17 36.67 M9.17 36.67 C2.19 37.27, -0.02 34.61, 0 27.5 M9.17 36.67 C0.86 38.21, 0.08 35.74, 0 27.5 M0 27.5 C-1.33 21.92, -1.22 19.85, 0 9.17 M0 27.5 C-0.84 21.12, 0.78 15.38, 0 9.17 M0 9.17 C-1.17 1.51, 3.61 -0.55, 9.17 0 M0 9.17 C0.41 3.81, 3.71 -1.63, 9.17 0" stroke="#000000" stroke-width="1" fill="none"></path></g><g stroke-linecap="round" transform="translate(304.0466686565287 15.04084810180035) rotate(0 34.73688152161219 33.53073980211175)"><path d="M21.09 1.61 C26.73 -1.18, 35.84 -0.53, 42.57 1.31 C49.3 3.14, 57.1 7.79, 61.45 12.65 C65.81 17.51, 68.36 23.84, 68.68 30.45 C69 37.07, 67.01 46.71, 63.36 52.31 C59.71 57.91, 53.09 61.72, 46.78 64.05 C40.48 66.39, 32.01 67.8, 25.51 66.33 C19.02 64.86, 12.01 60.26, 7.82 55.23 C3.64 50.19, 0.95 42.53, 0.41 36.11 C-0.13 29.69, -0.04 22.72, 4.6 16.68 C9.23 10.65, 22.92 2.48, 28.21 -0.12 C33.5 -2.72, 36.1 0.49, 36.35 1.1 M48.17 1.4 C54.39 3.22, 59.95 9.57, 63.68 15.27 C67.41 20.96, 71.12 29.07, 70.54 35.58 C69.96 42.08, 64.57 49.1, 60.19 54.28 C55.82 59.45, 50.75 64.89, 44.31 66.63 C37.87 68.38, 28.2 67.12, 21.54 64.76 C14.87 62.4, 8.12 58.3, 4.33 52.47 C0.55 46.65, -1.77 36.84, -1.18 29.83 C-0.58 22.81, 3.45 15.35, 7.9 10.4 C12.34 5.44, 18.59 1.56, 25.48 0.11 C32.36 -1.33, 45.7 1.22, 49.2 1.73 C52.7 2.24, 46.78 2.33, 46.48 3.17" stroke="none" stroke-width="0" fill="#ced4da"></path><path d="M21.07 2.36 C26.75 -0.32, 35.82 -0.37, 42.44 1.16 C49.07 2.69, 56.42 6.4, 60.83 11.54 C65.24 16.67, 68.18 25.39, 68.9 31.98 C69.62 38.57, 68.65 45.58, 65.17 51.06 C61.7 56.54, 54.43 62.44, 48.05 64.86 C41.66 67.29, 33.47 67.38, 26.87 65.6 C20.27 63.82, 12.97 59.1, 8.44 54.21 C3.9 49.32, 0.1 42.79, -0.35 36.24 C-0.8 29.69, 1.9 20.73, 5.75 14.91 C9.61 9.08, 19.64 3.4, 22.76 1.29 C25.88 -0.81, 24.27 1.81, 24.48 2.28 M33.46 0.13 C39.8 -0.57, 47.52 1.24, 52.87 4.88 C58.23 8.52, 62.95 16.02, 65.58 21.98 C68.21 27.94, 70.09 34.36, 68.67 40.64 C67.25 46.93, 62.39 55.41, 57.05 59.69 C51.71 63.97, 43.44 66.11, 36.65 66.3 C29.85 66.5, 21.94 64.27, 16.28 60.87 C10.62 57.47, 5.41 51.62, 2.71 45.91 C0.02 40.2, -1.44 32.88, 0.11 26.6 C1.65 20.33, 6.76 12.59, 11.99 8.25 C17.22 3.91, 28.13 1.67, 31.49 0.55 C34.85 -0.57, 32.26 0.86, 32.17 1.51" stroke="#000000" stroke-width="1" fill="none"></path></g><g stroke-linecap="round" transform="translate(258.6957400033127 45.43561943321146) rotate(0 24.122834390008478 23.39914935830822)"><path d="M24.57 0.28 C29.35 0.02, 35.62 1.97, 39.46 5.21 C43.3 8.44, 46.69 14.63, 47.61 19.7 C48.52 24.76, 47.57 31.37, 44.94 35.6 C42.31 39.83, 36.76 43.37, 31.81 45.07 C26.86 46.77, 20.12 47.54, 15.26 45.8 C10.4 44.06, 5.2 39.04, 2.66 34.62 C0.12 30.2, -0.98 24.13, 0.02 19.26 C1.02 14.4, 4.44 8.61, 8.65 5.43 C12.87 2.24, 22.49 0.9, 25.31 0.16 C28.12 -0.57, 25.66 0.7, 25.55 1.01 M23.38 0.6 C28.14 0.18, 34.56 2.29, 38.64 5.23 C42.71 8.16, 46.78 13.38, 47.83 18.22 C48.88 23.05, 47.33 29.79, 44.94 34.24 C42.55 38.68, 38.32 43.09, 33.49 44.89 C28.65 46.69, 20.81 46.55, 15.94 45.04 C11.07 43.53, 6.87 39.99, 4.27 35.81 C1.67 31.64, -0.25 24.88, 0.34 20 C0.93 15.13, 4.04 9.97, 7.81 6.55 C11.57 3.13, 20.33 0.61, 22.92 -0.51 C25.51 -1.64, 23.33 -0.6, 23.35 -0.19" stroke="none" stroke-width="0" fill="#ced4da"></path><path d="M21.48 0.2 C26.34 -0.58, 33.26 1.02, 37.53 3.91 C41.8 6.81, 45.61 12.71, 47.12 17.56 C48.62 22.41, 48.63 28.48, 46.55 33 C44.47 37.51, 39.34 42.51, 34.64 44.64 C29.94 46.78, 23.34 47.17, 18.34 45.82 C13.33 44.47, 7.71 40.55, 4.62 36.54 C1.54 32.53, -0.57 26.73, -0.15 21.73 C0.27 16.74, 3.43 10.21, 7.16 6.55 C10.88 2.89, 19.58 0.76, 22.19 -0.22 C24.8 -1.2, 22.77 0.3, 22.8 0.66 M23.88 0.03 C28.74 -0.33, 35 1.69, 38.86 4.86 C42.73 8.03, 45.94 14.22, 47.06 19.06 C48.17 23.9, 47.86 29.53, 45.54 33.92 C43.23 38.3, 38 43.46, 33.14 45.36 C28.28 47.27, 21.31 47.02, 16.38 45.34 C11.46 43.65, 6.28 39.47, 3.6 35.26 C0.92 31.04, -0.36 24.82, 0.29 20.03 C0.93 15.25, 3.7 9.87, 7.5 6.56 C11.29 3.25, 20.51 1.14, 23.08 0.17 C25.65 -0.81, 22.88 0.28, 22.91 0.71" stroke="#000000" stroke-width="1" fill="none"></path></g><g stroke-linecap="round" transform="translate(284.7484011445181 26.61980860900468) rotate(0 16.55939800741814 14.885644421280603)"><path d="M13.07 -0.13 C16.25 -0.92, 21.12 0.35, 24.29 2.02 C27.45 3.69, 30.8 6.99, 32.06 9.88 C33.32 12.77, 33.09 16.31, 31.86 19.35 C30.63 22.39, 27.73 26.48, 24.67 28.14 C21.61 29.79, 17 29.85, 13.5 29.29 C10 28.73, 5.94 27.13, 3.67 24.78 C1.4 22.44, -0.17 18.41, -0.13 15.22 C-0.1 12.04, 1.5 8.09, 3.86 5.65 C6.23 3.22, 12.18 1.54, 14.04 0.61 C15.91 -0.33, 14.94 -0.15, 15.03 0.04 M16.8 0.11 C20.21 -0.13, 25.21 1.29, 27.85 3.37 C30.5 5.46, 32.1 9.41, 32.64 12.62 C33.18 15.83, 33.01 19.97, 31.07 22.63 C29.13 25.29, 24.36 27.54, 21 28.58 C17.64 29.61, 14.09 29.98, 10.9 28.86 C7.72 27.73, 3.71 24.59, 1.9 21.83 C0.09 19.08, -0.64 15.54, 0.02 12.33 C0.69 9.11, 3.04 4.68, 5.89 2.52 C8.74 0.35, 15.32 -0.22, 17.13 -0.65 C18.94 -1.08, 16.63 -0.38, 16.75 -0.09" stroke="none" stroke-width="0" fill="#ced4da"></path><path d="M15.81 -0.17 C19.18 -0.4, 23.65 1.64, 26.55 3.63 C29.46 5.62, 32.44 8.69, 33.23 11.76 C34.01 14.83, 32.97 19.27, 31.25 22.06 C29.54 24.84, 26.22 27.38, 22.93 28.46 C19.64 29.54, 14.96 29.48, 11.51 28.55 C8.07 27.62, 4.11 25.58, 2.27 22.87 C0.42 20.16, -0.05 15.52, 0.44 12.3 C0.92 9.07, 2.6 5.54, 5.19 3.52 C7.78 1.5, 14.08 0.79, 15.97 0.18 C17.87 -0.43, 16.51 -0.38, 16.57 -0.15 M12.55 0.37 C15.56 -0.45, 20.02 0.76, 23.23 2.11 C26.44 3.46, 30.28 5.6, 31.81 8.47 C33.33 11.34, 33.45 16.26, 32.38 19.34 C31.32 22.41, 28.38 25.3, 25.42 26.93 C22.47 28.55, 18.13 29.41, 14.67 29.09 C11.21 28.77, 7.17 27.14, 4.66 25.02 C2.15 22.9, -0.14 19.51, -0.41 16.38 C-0.67 13.25, 0.94 8.86, 3.06 6.24 C5.17 3.62, 10.69 1.51, 12.29 0.66 C13.9 -0.2, 12.68 0.8, 12.69 1.09" stroke="#000000" stroke-width="1" fill="none"></path></g><g stroke-linecap="round" transform="translate(350.3625106853474 54.60229650141417) rotate(0 20.504409231507225 19.29826751200676)"><path d="M23.01 0.33 C27.24 0.75, 32.82 3.7, 35.75 6.68 C38.69 9.65, 40.55 14.04, 40.64 18.2 C40.73 22.36, 39 28.36, 36.28 31.64 C33.56 34.92, 28.64 37.07, 24.34 37.88 C20.05 38.68, 14.35 38.36, 10.53 36.49 C6.7 34.62, 2.93 30.48, 1.37 26.65 C-0.19 22.82, -0.16 17.38, 1.16 13.51 C2.47 9.64, 5.51 5.68, 9.25 3.43 C13 1.18, 21.07 0.4, 23.63 0 C26.18 -0.41, 24.56 0.64, 24.58 0.98 M24.57 -0.21 C28.75 0.24, 33.32 3.57, 36.16 6.84 C38.99 10.11, 41.71 15.31, 41.59 19.42 C41.47 23.53, 38.32 28.3, 35.45 31.5 C32.57 34.7, 28.62 37.88, 24.36 38.62 C20.11 39.36, 13.86 37.99, 9.92 35.92 C5.98 33.86, 2.23 30.24, 0.7 26.22 C-0.83 22.19, -0.87 15.86, 0.75 11.77 C2.37 7.69, 6.57 3.68, 10.43 1.71 C14.29 -0.26, 21.49 0.2, 23.92 -0.03 C26.35 -0.26, 25.08 -0.05, 25 0.33" stroke="none" stroke-width="0" fill="#ced4da"></path><path d="M21.22 0.47 C25.52 0.43, 31.58 2.29, 34.86 5.04 C38.15 7.79, 40.42 12.91, 40.94 16.98 C41.46 21.05, 40.35 26.09, 37.98 29.47 C35.61 32.85, 30.99 35.95, 26.73 37.24 C22.46 38.54, 16.41 38.83, 12.38 37.24 C8.35 35.64, 4.59 31.42, 2.56 27.68 C0.52 23.94, -0.66 18.72, 0.18 14.79 C1.02 10.87, 4.01 6.66, 7.6 4.13 C11.19 1.6, 19.25 0.2, 21.71 -0.4 C24.18 -0.99, 22.46 0.1, 22.4 0.57 M19.97 0.58 C24.17 0.3, 30.42 1.54, 33.87 4.17 C37.31 6.79, 39.98 12.26, 40.64 16.35 C41.31 20.44, 40.08 25.29, 37.86 28.71 C35.64 32.13, 31.38 35.46, 27.31 36.88 C23.24 38.3, 17.62 38.48, 13.44 37.23 C9.26 35.98, 4.46 32.9, 2.25 29.36 C0.04 25.82, -0.62 20.1, 0.19 15.99 C1 11.87, 3.68 7.28, 7.09 4.67 C10.49 2.07, 18.48 1, 20.61 0.37 C22.75 -0.26, 19.9 0.51, 19.9 0.89" stroke="#000000" stroke-width="1" fill="none"></path></g><g stroke-linecap="round" transform="translate(264.830367881264 51.36543289371497) rotate(0 21.245712417459885 20.676630834849334)"><path d="M17 0.74 C21.18 -0.46, 27.06 -0.04, 30.99 2.09 C34.92 4.23, 38.93 9.41, 40.59 13.54 C42.25 17.68, 42.38 22.76, 40.95 26.9 C39.52 31.05, 35.82 36.03, 32 38.42 C28.18 40.81, 22.43 41.87, 18.01 41.22 C13.6 40.58, 8.59 37.8, 5.53 34.55 C2.47 31.31, -0.12 26.24, -0.35 21.74 C-0.57 17.24, 1.23 11.09, 4.2 7.55 C7.17 4.01, 15.13 1.69, 17.47 0.51 C19.81 -0.66, 18.1 0.28, 18.24 0.52 M21.59 -0.37 C26.01 -0.46, 32.64 2.04, 36.01 4.97 C39.38 7.9, 41.14 12.74, 41.81 17.22 C42.48 21.7, 42.35 27.96, 40.04 31.84 C37.72 35.71, 32.44 39, 27.92 40.46 C23.41 41.92, 17.29 42.35, 12.95 40.59 C8.61 38.83, 3.99 34.05, 1.87 29.91 C-0.25 25.77, -0.71 20.08, 0.23 15.76 C1.17 11.44, 3.82 6.7, 7.53 4.01 C11.25 1.32, 20.22 0.19, 22.5 -0.41 C24.79 -1.01, 21.31 -0.09, 21.26 0.41" stroke="none" stroke-width="0" fill="#ced4da"></path><path d="M19.81 0.01 C24.15 -0.68, 29.79 1.35, 33.49 3.86 C37.18 6.36, 40.78 10.86, 41.97 15.04 C43.16 19.21, 42.63 24.81, 40.64 28.9 C38.65 32.98, 34.14 37.65, 30.05 39.53 C25.95 41.41, 20.48 41.39, 16.06 40.19 C11.64 38.98, 6.29 35.82, 3.55 32.3 C0.8 28.79, -0.79 23.54, -0.39 19.1 C0 14.65, 2.53 8.8, 5.91 5.64 C9.3 2.48, 17.55 0.92, 19.93 0.13 C22.31 -0.67, 20.16 0.54, 20.19 0.86 M20.9 -0.41 C25.31 -0.81, 31.01 2.07, 34.49 4.86 C37.96 7.65, 40.87 12.13, 41.75 16.33 C42.62 20.53, 41.89 26.14, 39.76 30.05 C37.64 33.96, 33.29 38, 28.98 39.79 C24.68 41.57, 18.3 42.13, 13.95 40.76 C9.61 39.38, 5.27 35.37, 2.93 31.53 C0.59 27.7, -0.79 22.08, -0.07 17.74 C0.64 13.4, 3.88 8.36, 7.24 5.49 C10.61 2.62, 17.82 1.24, 20.09 0.51 C22.35 -0.22, 20.81 0.8, 20.84 1.11" stroke="#ced4da" stroke-width="1" fill="none"></path></g><g stroke-linecap="round" transform="translate(322.1179138640573 35.43114858062012) rotate(0 25.60867121747401 27.505609826175743)"><path d="M28.7 -0.48 C33.76 0.06, 40.39 5.82, 43.99 10.27 C47.59 14.72, 50.14 20.44, 50.29 26.22 C50.43 31.99, 48.18 40.18, 44.87 44.92 C41.56 49.66, 35.62 53.47, 30.43 54.64 C25.23 55.81, 18.6 54.64, 13.7 51.96 C8.81 49.27, 3.26 44.16, 1.07 38.53 C-1.13 32.9, -1.3 23.86, 0.55 18.18 C2.39 12.5, 7.06 7.4, 12.15 4.43 C17.24 1.46, 27.6 0.96, 31.08 0.35 C34.55 -0.26, 33.09 0.26, 32.99 0.76 M17.1 1.42 C21.76 -1.06, 27.22 -1.72, 32.5 0.26 C37.77 2.25, 45.67 8.13, 48.77 13.33 C51.87 18.54, 52.23 25.49, 51.1 31.49 C49.98 37.49, 46.35 45.58, 42.05 49.33 C37.75 53.07, 30.74 54.19, 25.31 53.95 C19.88 53.71, 13.79 51.48, 9.47 47.91 C5.15 44.34, 0.29 38.19, -0.6 32.52 C-1.5 26.84, 1.55 18.93, 4.09 13.85 C6.63 8.77, 12.49 3.73, 14.61 2.02 C16.73 0.32, 16.19 3.25, 16.79 3.63" stroke="none" stroke-width="0" fill="#ced4da"></path><path d="M36.95 3.03 C41.7 5.1, 47.14 10.58, 49.4 15.75 C51.65 20.92, 52.12 28.25, 50.48 34.05 C48.84 39.84, 44.04 47.21, 39.55 50.52 C35.06 53.84, 29.04 54.65, 23.55 53.92 C18.06 53.19, 10.67 50.14, 6.6 46.13 C2.53 42.13, -0.49 35.81, -0.87 29.87 C-1.25 23.93, 0.95 15.32, 4.29 10.51 C7.63 5.7, 13.63 2, 19.18 1.02 C24.74 0.04, 34.13 3.94, 37.6 4.65 C41.07 5.37, 40.07 5.22, 40 5.32 M35.15 2.63 C39.96 4.45, 45.04 9.11, 47.59 14.03 C50.13 18.95, 51.47 26.34, 50.44 32.16 C49.41 37.97, 45.86 44.94, 41.41 48.92 C36.95 52.89, 29.27 56.14, 23.72 56.01 C18.17 55.89, 12.13 52.22, 8.11 48.17 C4.08 44.11, 0.28 37.44, -0.42 31.67 C-1.11 25.91, 1.13 18.47, 3.93 13.58 C6.73 8.68, 11.13 4, 16.37 2.32 C21.61 0.63, 32.43 3.29, 35.36 3.44 C38.29 3.59, 34 3.21, 33.96 3.23" stroke="#ced4da" stroke-width="1" fill="none"></path></g><g stroke-linecap="round" transform="translate(339.94913678585 54.77992238937617) rotate(0 24.47050805225291 18.779692226147546)"><path d="M27.93 0.72 C32.88 1.11, 39.07 3.21, 42.5 6.19 C45.94 9.17, 48.42 14.53, 48.55 18.62 C48.69 22.71, 46.54 27.59, 43.33 30.71 C40.11 33.84, 34.45 36.54, 29.26 37.36 C24.08 38.19, 16.89 37.7, 12.22 35.67 C7.54 33.64, 3.04 29, 1.22 25.19 C-0.6 21.38, -0.5 16.6, 1.3 12.83 C3.1 9.06, 7.25 4.68, 12 2.55 C16.75 0.41, 26.74 0.28, 29.82 0.02 C32.89 -0.24, 30.66 0.65, 30.44 0.98 M20.87 -0.37 C25.8 -1.01, 33.92 0.93, 38.42 3.21 C42.92 5.49, 46.52 9.39, 47.89 13.31 C49.26 17.23, 48.81 23.13, 46.67 26.74 C44.53 30.34, 39.7 33.32, 35.07 34.94 C30.44 36.56, 23.99 37.3, 18.89 36.44 C13.78 35.57, 7.47 32.93, 4.43 29.77 C1.38 26.61, 0.36 21.45, 0.59 17.49 C0.83 13.54, 2.3 8.85, 5.82 6.05 C9.33 3.25, 18.97 1.64, 21.68 0.7 C24.38 -0.25, 22.04 0.06, 22.06 0.38" stroke="none" stroke-width="0" fill="#ced4da"></path><path d="M23.81 -0.23 C28.78 -0.71, 35.57 0.95, 39.63 3.49 C43.7 6.03, 47.06 11.05, 48.18 14.99 C49.3 18.92, 48.83 23.62, 46.36 27.1 C43.88 30.59, 38.32 34.29, 33.34 35.91 C28.35 37.53, 21.44 38.09, 16.46 36.83 C11.48 35.56, 6.17 31.72, 3.45 28.3 C0.74 24.87, -0.53 20.11, 0.16 16.28 C0.85 12.44, 3.36 7.99, 7.6 5.28 C11.84 2.56, 22.29 0.84, 25.61 -0.02 C28.92 -0.89, 27.45 -0.24, 27.49 0.09 M20.73 -0.15 C25.62 -1.07, 32.84 0.11, 37.35 2.27 C41.86 4.43, 46.24 8.81, 47.81 12.82 C49.37 16.83, 48.71 22.55, 46.71 26.33 C44.71 30.11, 40.42 33.67, 35.81 35.51 C31.2 37.35, 24.15 38.18, 19.05 37.37 C13.94 36.57, 8.46 33.84, 5.17 30.71 C1.88 27.58, -0.89 22.59, -0.7 18.62 C-0.51 14.65, 2.79 9.92, 6.32 6.9 C9.85 3.89, 17.96 1.66, 20.5 0.52 C23.04 -0.63, 21.51 -0.14, 21.56 0.04" stroke="#ced4da" stroke-width="1" fill="none"></path></g><g stroke-linecap="round" transform="translate(297.07832422918955 28.222781867551987) rotate(0 20.48693697397917 20.676630834849362)"><path d="M16.04 0.1 C20.08 -1.03, 26.06 0.49, 29.96 2.69 C33.86 4.89, 37.77 9.15, 39.45 13.28 C41.13 17.41, 41.5 23.21, 40.05 27.47 C38.6 31.73, 34.6 36.61, 30.76 38.84 C26.91 41.06, 21.26 41.54, 16.97 40.82 C12.69 40.1, 7.85 37.8, 5.03 34.5 C2.22 31.2, 0.12 25.53, 0.1 21 C0.08 16.48, 2.08 10.8, 4.91 7.36 C7.74 3.91, 15.04 1.49, 17.09 0.33 C19.14 -0.83, 17.22 -0.01, 17.22 0.39 M19.13 0.35 C23.34 -0.23, 28.59 1.12, 32.04 3.69 C35.48 6.25, 38.72 11.59, 39.81 15.74 C40.89 19.89, 40.31 24.79, 38.54 28.6 C36.78 32.41, 33.15 36.66, 29.21 38.61 C25.27 40.56, 19.03 41.36, 14.9 40.33 C10.78 39.29, 7.04 35.9, 4.46 32.38 C1.87 28.86, -0.88 23.45, -0.61 19.19 C-0.33 14.93, 2.84 10.03, 6.11 6.83 C9.39 3.62, 16.96 0.92, 19.04 -0.03 C21.12 -0.99, 18.59 0.69, 18.6 1.11" stroke="none" stroke-width="0" fill="#ced4da"></path><path d="M22.06 -0.43 C26.17 -0.33, 31.34 2.87, 34.52 5.96 C37.7 9.04, 40.7 13.73, 41.13 18.07 C41.57 22.41, 39.71 28.22, 37.13 31.99 C34.55 35.77, 29.85 39.55, 25.64 40.74 C21.42 41.92, 15.79 40.93, 11.85 39.1 C7.91 37.28, 3.94 33.64, 1.99 29.8 C0.03 25.97, -0.95 20.4, 0.14 16.08 C1.22 11.76, 4.71 6.62, 8.48 3.89 C12.25 1.16, 20.17 0.23, 22.75 -0.3 C25.32 -0.83, 24.03 0.31, 23.95 0.72 M22.37 -0.49 C26.62 -0.32, 32.16 2.69, 35.17 6.03 C38.19 9.38, 40.17 15.12, 40.47 19.59 C40.78 24.06, 39.54 29.29, 37.01 32.85 C34.48 36.41, 29.5 39.79, 25.27 40.93 C21.04 42.07, 15.66 41.57, 11.64 39.7 C7.61 37.84, 2.93 33.71, 1.12 29.73 C-0.69 25.75, -0.42 20.12, 0.78 15.83 C1.98 11.53, 4.64 6.67, 8.33 3.96 C12.01 1.25, 20.64 0.24, 22.89 -0.42 C25.14 -1.07, 21.89 -0.39, 21.82 0.04" stroke="#ced4da" stroke-width="1" fill="none"></path></g><g stroke-linecap="round" transform="translate(279.62648902914316 38.84563807628177) rotate(0 28.26438526965643 25.798365078344148)"><path d="M40.72 3.27 C46.08 5.57, 51.72 11.15, 54.18 16.27 C56.64 21.39, 57.42 28.62, 55.49 34.01 C53.56 39.4, 47.89 45.82, 42.58 48.61 C37.26 51.41, 29.5 51.63, 23.6 50.77 C17.7 49.92, 11.1 47.53, 7.2 43.48 C3.3 39.44, 0.29 32.22, 0.21 26.51 C0.14 20.79, 3.04 13.52, 6.75 9.21 C10.46 4.9, 16.61 1.66, 22.47 0.65 C28.32 -0.37, 38.46 2.33, 41.87 3.13 C45.29 3.93, 43.13 5.1, 42.95 5.45 M18.67 1.83 C23.57 -0.12, 31.65 1.32, 37.11 2.99 C42.57 4.65, 48.33 7.5, 51.43 11.81 C54.52 16.13, 56.68 23.41, 55.66 28.89 C54.64 34.38, 49.66 41.08, 45.29 44.72 C40.93 48.36, 35.54 50.62, 29.46 50.76 C23.38 50.9, 13.55 48.8, 8.82 45.58 C4.1 42.35, 1.73 36.9, 1.11 31.41 C0.48 25.93, 2.11 17.43, 5.07 12.66 C8.04 7.88, 16.45 4.42, 18.89 2.76 C21.33 1.1, 19.54 2.6, 19.71 2.7" stroke="none" stroke-width="0" fill="#ced4da"></path><path d="M20.94 1.04 C26.48 -0.56, 35.74 -0.64, 41.15 1.64 C46.57 3.93, 51.19 9.46, 53.42 14.73 C55.65 19.99, 56.15 27.97, 54.51 33.23 C52.86 38.49, 48.43 43.2, 43.55 46.27 C38.67 49.34, 31.3 51.92, 25.2 51.64 C19.11 51.37, 11.19 48.64, 7 44.63 C2.82 40.61, 0.38 33.36, 0.09 27.56 C-0.19 21.75, 0.65 14.37, 5.29 9.8 C9.92 5.23, 23.41 1.65, 27.91 0.15 C32.41 -1.36, 32.32 0.43, 32.28 0.76 M22.17 0.3 C27.59 -0.81, 35.04 1.25, 40.35 3.9 C45.66 6.54, 51.68 11.14, 54.06 16.15 C56.43 21.15, 56.36 28.58, 54.6 33.93 C52.84 39.28, 48.74 45.18, 43.51 48.26 C38.28 51.34, 29.23 52.99, 23.24 52.39 C17.24 51.8, 11.6 48.8, 7.54 44.68 C3.49 40.56, -0.96 33.6, -1.12 27.68 C-1.27 21.76, 2.95 13.8, 6.61 9.14 C10.27 4.47, 18.17 1.01, 20.84 -0.3 C23.51 -1.62, 22.16 0.85, 22.63 1.25" stroke="#ced4da" stroke-width="1" fill="none"></path></g><g transform="translate(299.88513937261814 58.1735670903567) rotate(0 25.14839520321945 13.85727898952905)"><text x="25.148395203219454" y="20.03659895374867" font-family="Virgil, Segoe UI Emoji" font-size="20.529302206709755px" fill="#000000" text-anchor="middle" style="white-space: pre;" direction="ltr" dominant-baseline="alphabetic">cloud</text></g><g stroke-linecap="round" transform="translate(854.8027558755106 175.81447445201007) rotate(0 48.02441435389869 47.100867924016)"><path d="M-0.13 0.61 L97.92 1.15 L96.8 96.16 L-1.71 92.7" stroke="none" stroke-width="0" fill="#eeeeee"></path><path d="M0 0 C22.88 -2.3, 44.73 -2.34, 96.05 0 M0 0 C28 1.04, 55.19 0.27, 96.05 0 M96.05 0 C97.14 21.69, 95.34 45.23, 96.05 94.2 M96.05 0 C95.66 36.67, 95.61 71.26, 96.05 94.2 M96.05 94.2 C61.92 93.85, 24.32 92.65, 0 94.2 M96.05 94.2 C60.56 94.38, 25.29 93.43, 0 94.2 M0 94.2 C0.94 63.44, 0.89 28.26, 0 0 M0 94.2 C1.39 68.46, 1.28 42.95, 0 0" stroke="#000000" stroke-width="1" fill="none"></path></g><g transform="translate(864.8912303712751 202.83160950995494) rotate(0 37.93593985813402 20.08373286607099)"><text x="37.93593985813406" y="14.519795020211312" font-family="Virgil, Segoe UI Emoji" font-size="14.876839160052583px" fill="#000000" text-anchor="middle" style="white-space: pre;" direction="ltr" dominant-baseline="alphabetic">Application</text><text x="37.93593985813406" y="34.60352788628229" font-family="Virgil, Segoe UI Emoji" font-size="14.876839160052583px" fill="#000000" text-anchor="middle" style="white-space: pre;" direction="ltr" dominant-baseline="alphabetic">server</text></g><g stroke-linecap="round" transform="translate(261.2003733475726 184.64682542613724) rotate(0 63.941917866069474 46.94437197384838)"><path d="M0 0 C45.94 -1.02, 95.08 -0.34, 127.88 0 M0 0 C33.18 0.84, 66.68 1.03, 127.88 0 M127.88 0 C128.26 30.52, 128.95 57, 127.88 93.89 M127.88 0 C129.19 35.27, 127.77 68.21, 127.88 93.89 M127.88 93.89 C78.86 92.92, 27.38 94.41, 0 93.89 M127.88 93.89 C82.91 94.77, 37.21 95.06, 0 93.89 M0 93.89 C1.59 70.11, -0.89 46.67, 0 0 M0 93.89 C0.04 74.25, -0.35 54.46, 0 0" stroke="#000000" stroke-width="1" fill="none"></path></g><g stroke-linecap="round"><g transform="translate(260.1247755966774 195.3633598183814) rotate(0 64.42096614922215 0)"><path d="M-1.18 0.07 C20.31 0.15, 106.32 -0.32, 128.07 -0.44 M0.4 -0.95 C22.36 -0.62, 108.98 0.66, 130.37 0.86" stroke="#000000" stroke-width="1" fill="none"></path></g></g><mask></mask><g stroke-linecap="round" transform="translate(265.6884088165275 188.91839522614606) rotate(0 2.5009765625 2.5009765625)"><path d="M5 2.5 C5 2.65, 4.99 2.79, 4.96 2.94 C4.94 3.08, 4.9 3.22, 4.85 3.36 C4.8 3.49, 4.74 3.63, 4.67 3.75 C4.59 3.88, 4.51 4, 4.42 4.11 C4.32 4.22, 4.22 4.32, 4.11 4.42 C4 4.51, 3.88 4.59, 3.75 4.67 C3.63 4.74, 3.49 4.8, 3.36 4.85 C3.22 4.9, 3.08 4.94, 2.94 4.96 C2.79 4.99, 2.65 5, 2.5 5 C2.36 5, 2.21 4.99, 2.07 4.96 C1.92 4.94, 1.78 4.9, 1.65 4.85 C1.51 4.8, 1.38 4.74, 1.25 4.67 C1.13 4.59, 1 4.51, 0.89 4.42 C0.78 4.32, 0.68 4.22, 0.59 4.11 C0.49 4, 0.41 3.88, 0.34 3.75 C0.26 3.63, 0.2 3.49, 0.15 3.36 C0.1 3.22, 0.06 3.08, 0.04 2.94 C0.01 2.79, 0 2.65, 0 2.5 C0 2.36, 0.01 2.21, 0.04 2.07 C0.06 1.92, 0.1 1.78, 0.15 1.65 C0.2 1.51, 0.26 1.38, 0.34 1.25 C0.41 1.13, 0.49 1, 0.59 0.89 C0.68 0.78, 0.78 0.68, 0.89 0.59 C1 0.49, 1.13 0.41, 1.25 0.34 C1.38 0.26, 1.51 0.2, 1.65 0.15 C1.78 0.1, 1.92 0.06, 2.07 0.04 C2.21 0.01, 2.36 0, 2.5 0 C2.65 0, 2.79 0.01, 2.94 0.04 C3.08 0.06, 3.22 0.1, 3.36 0.15 C3.49 0.2, 3.63 0.26, 3.75 0.34 C3.88 0.41, 4 0.49, 4.11 0.59 C4.22 0.68, 4.32 0.78, 4.42 0.89 C4.51 1, 4.59 1.13, 4.67 1.25 C4.74 1.38, 4.8 1.51, 4.85 1.65 C4.9 1.78, 4.94 1.92, 4.96 2.07 C4.99 2.21, 5 2.43, 5 2.5 C5.01 2.57, 5.01 2.43, 5 2.5" stroke="none" stroke-width="0" fill="#fa5252"></path><path d="M5 2.5 C5 2.65, 4.99 2.79, 4.96 2.94 C4.94 3.08, 4.9 3.22, 4.85 3.36 C4.8 3.49, 4.74 3.63, 4.67 3.75 C4.59 3.88, 4.51 4, 4.42 4.11 C4.32 4.22, 4.22 4.32, 4.11 4.42 C4 4.51, 3.88 4.59, 3.75 4.67 C3.63 4.74, 3.49 4.8, 3.36 4.85 C3.22 4.9, 3.08 4.94, 2.94 4.96 C2.79 4.99, 2.65 5, 2.5 5 C2.36 5, 2.21 4.99, 2.07 4.96 C1.92 4.94, 1.78 4.9, 1.65 4.85 C1.51 4.8, 1.38 4.74, 1.25 4.67 C1.13 4.59, 1 4.51, 0.89 4.42 C0.78 4.32, 0.68 4.22, 0.59 4.11 C0.49 4, 0.41 3.88, 0.34 3.75 C0.26 3.63, 0.2 3.49, 0.15 3.36 C0.1 3.22, 0.06 3.08, 0.04 2.94 C0.01 2.79, 0 2.65, 0 2.5 C0 2.36, 0.01 2.21, 0.04 2.07 C0.06 1.92, 0.1 1.78, 0.15 1.65 C0.2 1.51, 0.26 1.38, 0.34 1.25 C0.41 1.13, 0.49 1, 0.59 0.89 C0.68 0.78, 0.78 0.68, 0.89 0.59 C1 0.49, 1.13 0.41, 1.25 0.34 C1.38 0.26, 1.51 0.2, 1.65 0.15 C1.78 0.1, 1.92 0.06, 2.07 0.04 C2.21 0.01, 2.36 0, 2.5 0 C2.65 0, 2.79 0.01, 2.94 0.04 C3.08 0.06, 3.22 0.1, 3.36 0.15 C3.49 0.2, 3.63 0.26, 3.75 0.34 C3.88 0.41, 4 0.49, 4.11 0.59 C4.22 0.68, 4.32 0.78, 4.42 0.89 C4.51 1, 4.59 1.13, 4.67 1.25 C4.74 1.38, 4.8 1.51, 4.85 1.65 C4.9 1.78, 4.94 1.92, 4.96 2.07 C4.99 2.21, 5 2.43, 5 2.5 C5.01 2.57, 5.01 2.43, 5 2.5" stroke="#000000" stroke-width="1" fill="none"></path></g><g stroke-linecap="round" transform="translate(275.9511041290275 188.91839522614606) rotate(0 2.5009765625 2.5009765625)"><path d="M5 2.5 C5 2.65, 4.99 2.79, 4.96 2.94 C4.94 3.08, 4.9 3.22, 4.85 3.36 C4.8 3.49, 4.74 3.63, 4.67 3.75 C4.59 3.88, 4.51 4, 4.42 4.11 C4.32 4.22, 4.22 4.32, 4.11 4.42 C4 4.51, 3.88 4.59, 3.75 4.67 C3.63 4.74, 3.49 4.8, 3.36 4.85 C3.22 4.9, 3.08 4.94, 2.94 4.96 C2.79 4.99, 2.65 5, 2.5 5 C2.36 5, 2.21 4.99, 2.07 4.96 C1.92 4.94, 1.78 4.9, 1.65 4.85 C1.51 4.8, 1.38 4.74, 1.25 4.67 C1.13 4.59, 1 4.51, 0.89 4.42 C0.78 4.32, 0.68 4.22, 0.59 4.11 C0.49 4, 0.41 3.88, 0.34 3.75 C0.26 3.63, 0.2 3.49, 0.15 3.36 C0.1 3.22, 0.06 3.08, 0.04 2.94 C0.01 2.79, 0 2.65, 0 2.5 C0 2.36, 0.01 2.21, 0.04 2.07 C0.06 1.92, 0.1 1.78, 0.15 1.65 C0.2 1.51, 0.26 1.38, 0.34 1.25 C0.41 1.13, 0.49 1, 0.59 0.89 C0.68 0.78, 0.78 0.68, 0.89 0.59 C1 0.49, 1.13 0.41, 1.25 0.34 C1.38 0.26, 1.51 0.2, 1.65 0.15 C1.78 0.1, 1.92 0.06, 2.07 0.04 C2.21 0.01, 2.36 0, 2.5 0 C2.65 0, 2.79 0.01, 2.94 0.04 C3.08 0.06, 3.22 0.1, 3.36 0.15 C3.49 0.2, 3.63 0.26, 3.75 0.34 C3.88 0.41, 4 0.49, 4.11 0.59 C4.22 0.68, 4.32 0.78, 4.42 0.89 C4.51 1, 4.59 1.13, 4.67 1.25 C4.74 1.38, 4.8 1.51, 4.85 1.65 C4.9 1.78, 4.94 1.92, 4.96 2.07 C4.99 2.21, 5 2.43, 5 2.5 C5.01 2.57, 5.01 2.43, 5 2.5" stroke="none" stroke-width="0" fill="#fab005"></path><path d="M5 2.5 C5 2.65, 4.99 2.79, 4.96 2.94 C4.94 3.08, 4.9 3.22, 4.85 3.36 C4.8 3.49, 4.74 3.63, 4.67 3.75 C4.59 3.88, 4.51 4, 4.42 4.11 C4.32 4.22, 4.22 4.32, 4.11 4.42 C4 4.51, 3.88 4.59, 3.75 4.67 C3.63 4.74, 3.49 4.8, 3.36 4.85 C3.22 4.9, 3.08 4.94, 2.94 4.96 C2.79 4.99, 2.65 5, 2.5 5 C2.36 5, 2.21 4.99, 2.07 4.96 C1.92 4.94, 1.78 4.9, 1.65 4.85 C1.51 4.8, 1.38 4.74, 1.25 4.67 C1.13 4.59, 1 4.51, 0.89 4.42 C0.78 4.32, 0.68 4.22, 0.59 4.11 C0.49 4, 0.41 3.88, 0.34 3.75 C0.26 3.63, 0.2 3.49, 0.15 3.36 C0.1 3.22, 0.06 3.08, 0.04 2.94 C0.01 2.79, 0 2.65, 0 2.5 C0 2.36, 0.01 2.21, 0.04 2.07 C0.06 1.92, 0.1 1.78, 0.15 1.65 C0.2 1.51, 0.26 1.38, 0.34 1.25 C0.41 1.13, 0.49 1, 0.59 0.89 C0.68 0.78, 0.78 0.68, 0.89 0.59 C1 0.49, 1.13 0.41, 1.25 0.34 C1.38 0.26, 1.51 0.2, 1.65 0.15 C1.78 0.1, 1.92 0.06, 2.07 0.04 C2.21 0.01, 2.36 0, 2.5 0 C2.65 0, 2.79 0.01, 2.94 0.04 C3.08 0.06, 3.22 0.1, 3.36 0.15 C3.49 0.2, 3.63 0.26, 3.75 0.34 C3.88 0.41, 4 0.49, 4.11 0.59 C4.22 0.68, 4.32 0.78, 4.42 0.89 C4.51 1, 4.59 1.13, 4.67 1.25 C4.74 1.38, 4.8 1.51, 4.85 1.65 C4.9 1.78, 4.94 1.92, 4.96 2.07 C4.99 2.21, 5 2.43, 5 2.5 C5.01 2.57, 5.01 2.43, 5 2.5" stroke="#000000" stroke-width="1" fill="none"></path></g><g stroke-linecap="round" transform="translate(286.6645205953737 189.36911637999225) rotate(0 2.5009765625 2.5009765625)"><path d="M5 2.5 C5 2.65, 4.99 2.79, 4.96 2.94 C4.94 3.08, 4.9 3.22, 4.85 3.36 C4.8 3.49, 4.74 3.63, 4.67 3.75 C4.59 3.88, 4.51 4, 4.42 4.11 C4.32 4.22, 4.22 4.32, 4.11 4.42 C4 4.51, 3.88 4.59, 3.75 4.67 C3.63 4.74, 3.49 4.8, 3.36 4.85 C3.22 4.9, 3.08 4.94, 2.94 4.96 C2.79 4.99, 2.65 5, 2.5 5 C2.36 5, 2.21 4.99, 2.07 4.96 C1.92 4.94, 1.78 4.9, 1.65 4.85 C1.51 4.8, 1.38 4.74, 1.25 4.67 C1.13 4.59, 1 4.51, 0.89 4.42 C0.78 4.32, 0.68 4.22, 0.59 4.11 C0.49 4, 0.41 3.88, 0.34 3.75 C0.26 3.63, 0.2 3.49, 0.15 3.36 C0.1 3.22, 0.06 3.08, 0.04 2.94 C0.01 2.79, 0 2.65, 0 2.5 C0 2.36, 0.01 2.21, 0.04 2.07 C0.06 1.92, 0.1 1.78, 0.15 1.65 C0.2 1.51, 0.26 1.38, 0.34 1.25 C0.41 1.13, 0.49 1, 0.59 0.89 C0.68 0.78, 0.78 0.68, 0.89 0.59 C1 0.49, 1.13 0.41, 1.25 0.34 C1.38 0.26, 1.51 0.2, 1.65 0.15 C1.78 0.1, 1.92 0.06, 2.07 0.04 C2.21 0.01, 2.36 0, 2.5 0 C2.65 0, 2.79 0.01, 2.94 0.04 C3.08 0.06, 3.22 0.1, 3.36 0.15 C3.49 0.2, 3.63 0.26, 3.75 0.34 C3.88 0.41, 4 0.49, 4.11 0.59 C4.22 0.68, 4.32 0.78, 4.42 0.89 C4.51 1, 4.59 1.13, 4.67 1.25 C4.74 1.38, 4.8 1.51, 4.85 1.65 C4.9 1.78, 4.94 1.92, 4.96 2.07 C4.99 2.21, 5 2.43, 5 2.5 C5.01 2.57, 5.01 2.43, 5 2.5" stroke="none" stroke-width="0" fill="#40c057"></path><path d="M5 2.5 C5 2.65, 4.99 2.79, 4.96 2.94 C4.94 3.08, 4.9 3.22, 4.85 3.36 C4.8 3.49, 4.74 3.63, 4.67 3.75 C4.59 3.88, 4.51 4, 4.42 4.11 C4.32 4.22, 4.22 4.32, 4.11 4.42 C4 4.51, 3.88 4.59, 3.75 4.67 C3.63 4.74, 3.49 4.8, 3.36 4.85 C3.22 4.9, 3.08 4.94, 2.94 4.96 C2.79 4.99, 2.65 5, 2.5 5 C2.36 5, 2.21 4.99, 2.07 4.96 C1.92 4.94, 1.78 4.9, 1.65 4.85 C1.51 4.8, 1.38 4.74, 1.25 4.67 C1.13 4.59, 1 4.51, 0.89 4.42 C0.78 4.32, 0.68 4.22, 0.59 4.11 C0.49 4, 0.41 3.88, 0.34 3.75 C0.26 3.63, 0.2 3.49, 0.15 3.36 C0.1 3.22, 0.06 3.08, 0.04 2.94 C0.01 2.79, 0 2.65, 0 2.5 C0 2.36, 0.01 2.21, 0.04 2.07 C0.06 1.92, 0.1 1.78, 0.15 1.65 C0.2 1.51, 0.26 1.38, 0.34 1.25 C0.41 1.13, 0.49 1, 0.59 0.89 C0.68 0.78, 0.78 0.68, 0.89 0.59 C1 0.49, 1.13 0.41, 1.25 0.34 C1.38 0.26, 1.51 0.2, 1.65 0.15 C1.78 0.1, 1.92 0.06, 2.07 0.04 C2.21 0.01, 2.36 0, 2.5 0 C2.65 0, 2.79 0.01, 2.94 0.04 C3.08 0.06, 3.22 0.1, 3.36 0.15 C3.49 0.2, 3.63 0.26, 3.75 0.34 C3.88 0.41, 4 0.49, 4.11 0.59 C4.22 0.68, 4.32 0.78, 4.42 0.89 C4.51 1, 4.59 1.13, 4.67 1.25 C4.74 1.38, 4.8 1.51, 4.85 1.65 C4.9 1.78, 4.94 1.92, 4.96 2.07 C4.99 2.21, 5 2.43, 5 2.5 C5.01 2.57, 5.01 2.43, 5 2.5" stroke="#000000" stroke-width="1" fill="none"></path></g><g stroke-opacity="0.9" fill-opacity="0.9" stroke-linecap="round" transform="translate(302.6915815850009 205.4214852580081) rotate(0 21.360101269687874 21.360101269687874)"><path d="M15.9 0.73 C20.05 -0.6, 26.58 0.34, 30.81 2.34 C35.04 4.35, 39.4 8.69, 41.28 12.78 C43.16 16.86, 43.46 22.49, 42.12 26.85 C40.77 31.22, 37.12 36.25, 33.24 38.96 C29.36 41.67, 23.39 43.63, 18.83 43.1 C14.28 42.58, 9.03 39.21, 5.91 35.82 C2.79 32.43, 0.38 27.28, 0.11 22.77 C-0.16 18.25, 1.55 12.46, 4.28 8.71 C7.01 4.97, 14.27 1.65, 16.48 0.29 C18.69 -1.08, 17.45 0.22, 17.52 0.53 M18.09 0.52 C22.47 -0.27, 28.93 0.36, 32.92 2.76 C36.91 5.16, 40.66 10.54, 42.02 14.92 C43.39 19.3, 42.98 24.75, 41.1 29.02 C39.22 33.3, 34.8 38.29, 30.73 40.57 C26.67 42.85, 21.07 43.87, 16.71 42.7 C12.35 41.53, 7.37 37.41, 4.58 33.58 C1.78 29.75, -0.22 24.09, -0.05 19.73 C0.11 15.36, 2.33 10.53, 5.57 7.38 C8.82 4.22, 17.27 2.01, 19.41 0.8 C21.55 -0.41, 18.47 -0.22, 18.42 0.11" stroke="none" stroke-width="0" fill="#04aaf7"></path><path d="M21.97 0.32 C26.3 0.17, 32.24 1.97, 35.71 5.02 C39.19 8.07, 42.24 13.98, 42.83 18.63 C43.41 23.28, 41.62 29.14, 39.23 32.91 C36.85 36.68, 32.85 39.79, 28.51 41.25 C24.17 42.71, 17.5 43.36, 13.18 41.67 C8.87 39.97, 4.69 35.18, 2.61 31.08 C0.54 26.97, -0.18 21.39, 0.73 17.05 C1.65 12.7, 4.37 7.85, 8.09 4.99 C11.8 2.12, 20.38 0.57, 23.02 -0.14 C25.67 -0.85, 24.04 0.33, 23.94 0.72 M20.51 0.53 C24.9 0.16, 31.15 1.72, 34.78 4.42 C38.4 7.12, 41.35 12.06, 42.26 16.71 C43.18 21.36, 42.42 28.19, 40.24 32.31 C38.06 36.43, 33.51 39.88, 29.18 41.43 C24.86 42.97, 18.69 43.01, 14.28 41.58 C9.86 40.16, 4.93 36.83, 2.71 32.87 C0.5 28.91, 0.16 22.54, 1 17.83 C1.83 13.11, 4.39 7.46, 7.7 4.6 C11.02 1.73, 18.66 1.37, 20.88 0.64 C23.11 -0.1, 21.06 -0.01, 21.07 0.16" stroke="#000000" stroke-width="1" fill="none"></path></g><g stroke-linecap="round"><g transform="translate(329.7697456469765 221.6458373224657) rotate(0 -3.3114080732229922 5.9489359900645695)" fill-rule="evenodd"><path d="M0 0 C-0.31 -0.07, -0.57 0.63, -1.83 -0.41 C-3.09 -1.46, -5.98 -5.62, -7.57 -6.27 C-9.16 -6.93, -10.52 -5.79, -11.36 -4.35 C-12.2 -2.91, -12.63 0.53, -12.61 2.37 C-12.6 4.22, -10.47 5.65, -11.27 6.74 C-12.07 7.83, -16.44 7.74, -17.42 8.89 C-18.41 10.04, -18.04 12.9, -17.2 13.64 C-16.36 14.39, -13.8 14.04, -12.38 13.35 C-10.96 12.66, -10.16 8.72, -8.7 9.48 C-7.24 10.23, -5 16.42, -3.62 17.87 C-2.24 19.32, -0.39 20.35, -0.42 18.17 C-0.44 15.99, -4.08 7.1, -3.78 4.8 C-3.48 2.5, 0.23 4.17, 1.39 4.35 C2.54 4.53, 1.85 5.61, 3.16 5.87 C4.47 6.12, 7.96 6.74, 9.24 5.87 C10.51 5, 11.64 1.43, 10.8 0.63 C9.97 -0.16, 5.11 2.18, 4.22 1.11 C3.34 0.04, 5.78 -4.68, 5.49 -5.76 C5.19 -6.84, 3.43 -6.15, 2.47 -5.35 C1.52 -4.54, 0.17 -1.81, -0.24 -0.92 C-0.65 -0.03, -0.04 -0.15, 0 0" stroke="none" stroke-width="0" fill="#40c057" fill-rule="evenodd"></path><path d="M0 0 C-0.31 -0.07, -0.57 0.63, -1.83 -0.41 C-3.09 -1.46, -5.98 -5.62, -7.57 -6.27 C-9.16 -6.93, -10.52 -5.79, -11.36 -4.35 C-12.2 -2.91, -12.63 0.53, -12.61 2.37 C-12.6 4.22, -10.47 5.65, -11.27 6.74 C-12.07 7.83, -16.44 7.74, -17.42 8.89 C-18.41 10.04, -18.04 12.9, -17.2 13.64 C-16.36 14.39, -13.8 14.04, -12.38 13.35 C-10.96 12.66, -10.16 8.72, -8.7 9.48 C-7.24 10.23, -5 16.42, -3.62 17.87 C-2.24 19.32, -0.39 20.35, -0.42 18.17 C-0.44 15.99, -4.08 7.1, -3.78 4.8 C-3.48 2.5, 0.23 4.17, 1.39 4.35 C2.54 4.53, 1.85 5.61, 3.16 5.87 C4.47 6.12, 7.96 6.74, 9.24 5.87 C10.51 5, 11.64 1.43, 10.8 0.63 C9.97 -0.16, 5.11 2.18, 4.22 1.11 C3.34 0.04, 5.78 -4.68, 5.49 -5.76 C5.19 -6.84, 3.43 -6.15, 2.47 -5.35 C1.52 -4.54, 0.17 -1.81, -0.24 -0.92 C-0.65 -0.03, -0.04 -0.15, 0 0 M0 0 C-0.31 -0.07, -0.57 0.63, -1.83 -0.41 C-3.09 -1.46, -5.98 -5.62, -7.57 -6.27 C-9.16 -6.93, -10.52 -5.79, -11.36 -4.35 C-12.2 -2.91, -12.63 0.53, -12.61 2.37 C-12.6 4.22, -10.47 5.65, -11.27 6.74 C-12.07 7.83, -16.44 7.74, -17.42 8.89 C-18.41 10.04, -18.04 12.9, -17.2 13.64 C-16.36 14.39, -13.8 14.04, -12.38 13.35 C-10.96 12.66, -10.16 8.72, -8.7 9.48 C-7.24 10.23, -5 16.42, -3.62 17.87 C-2.24 19.32, -0.39 20.35, -0.42 18.17 C-0.44 15.99, -4.08 7.1, -3.78 4.8 C-3.48 2.5, 0.23 4.17, 1.39 4.35 C2.54 4.53, 1.85 5.61, 3.16 5.87 C4.47 6.12, 7.96 6.74, 9.24 5.87 C10.51 5, 11.64 1.43, 10.8 0.63 C9.97 -0.16, 5.11 2.18, 4.22 1.11 C3.34 0.04, 5.78 -4.68, 5.49 -5.76 C5.19 -6.84, 3.43 -6.15, 2.47 -5.35 C1.52 -4.54, 0.17 -1.81, -0.24 -0.92 C-0.65 -0.03, -0.04 -0.15, 0 0" stroke="#087f5b" stroke-width="1" fill="none"></path></g></g><mask></mask><g stroke-linecap="round"><g stroke-opacity="0.9" fill-opacity="0.9" transform="translate(303.75064405902845 226.3843588211891) rotate(0 21.047557886136133 0)"><path d="M-0.36 -0.03 C6.7 -0.05, 35.43 0.09, 42.44 0.16 M0.45 -0.52 C7.46 -0.74, 35.13 -0.73, 42.18 -0.73" stroke="#000000" stroke-width="1" fill="none"></path></g></g><mask></mask><g stroke-linecap="round"><g stroke-opacity="0.9" fill-opacity="0.9" transform="translate(308.8459730888028 210.94982989422294) rotate(0 14.659303301924325 2.593116626464507)"><path d="M0 0 C0.13 0.38, 0.09 1.58, 0.77 2.28 C1.46 2.97, 2.81 3.68, 4.1 4.19 C5.4 4.7, 6.64 5.13, 8.54 5.34 C10.43 5.55, 12.97 5.55, 15.48 5.45 C17.99 5.34, 21.44 5.28, 23.58 4.71 C25.72 4.14, 27.36 2.86, 28.32 2.03 C29.27 1.2, 29.15 0.12, 29.32 -0.26 M0 0 C0.13 0.38, 0.09 1.58, 0.77 2.28 C1.46 2.97, 2.81 3.68, 4.1 4.19 C5.4 4.7, 6.64 5.13, 8.54 5.34 C10.43 5.55, 12.97 5.55, 15.48 5.45 C17.99 5.34, 21.44 5.28, 23.58 4.71 C25.72 4.14, 27.36 2.86, 28.32 2.03 C29.27 1.2, 29.15 0.12, 29.32 -0.26" stroke="#000000" stroke-width="1" fill="none"></path></g></g><mask></mask><g stroke-opacity="0.9" fill-opacity="0.9" stroke-linecap="round" transform="translate(316.91988901272225 204.0389556284154) rotate(0 7.7642171765580485 22.41115194065472)"><path d="M9.57 -0.04 C11.15 0.5, 12.44 4.82, 13.44 8.5 C14.45 12.18, 15.5 17.31, 15.59 22.04 C15.68 26.77, 15.08 33.06, 13.99 36.86 C12.91 40.67, 10.7 44.09, 9.06 44.88 C7.42 45.67, 5.5 44.06, 4.14 41.62 C2.79 39.18, 1.58 34.71, 0.94 30.23 C0.3 25.75, -0.19 19.31, 0.3 14.73 C0.79 10.15, 2.37 5.17, 3.87 2.74 C5.37 0.3, 8.29 0.4, 9.31 0.12 C10.33 -0.16, 10.05 0.64, 9.99 1.06 M6.3 0.65 C7.77 -0.72, 9.89 0.26, 11.27 2.53 C12.66 4.81, 13.86 9.91, 14.63 14.3 C15.4 18.7, 16.3 24.54, 15.9 28.93 C15.5 33.33, 13.81 37.94, 12.26 40.67 C10.7 43.39, 8.29 45.83, 6.59 45.28 C4.89 44.73, 3.17 41.09, 2.05 37.38 C0.93 33.68, 0.03 27.87, -0.12 23.03 C-0.26 18.2, 0.26 12.06, 1.16 8.36 C2.06 4.65, 4.42 2.09, 5.3 0.82 C6.17 -0.46, 6.25 0.32, 6.43 0.68" stroke="#000000" stroke-width="1" fill="none"></path></g><g stroke-linecap="round"><g stroke-opacity="0.9" fill-opacity="0.9" transform="translate(310.3619245984287 242.68692195266385) rotate(0 14.659303301924325 -2.6770512214207827)"><path d="M0 0 C0.68 -0.72, 2.68 -3.4, 4.1 -4.32 C5.53 -5.24, 6.64 -5.3, 8.54 -5.52 C10.43 -5.73, 12.97 -5.73, 15.48 -5.63 C17.99 -5.52, 21.44 -5.45, 23.58 -4.86 C25.72 -4.28, 27.36 -2.95, 28.32 -2.1 C29.27 -1.24, 29.15 -0.12, 29.32 0.27 M0 0 C0.68 -0.72, 2.68 -3.4, 4.1 -4.32 C5.53 -5.24, 6.64 -5.3, 8.54 -5.52 C10.43 -5.73, 12.97 -5.73, 15.48 -5.63 C17.99 -5.52, 21.44 -5.45, 23.58 -4.86 C25.72 -4.28, 27.36 -2.95, 28.32 -2.1 C29.27 -1.24, 29.15 -0.12, 29.32 0.27" stroke="#000000" stroke-width="1" fill="none"></path></g></g><mask></mask><g transform="translate(290.1427333645661 255.65613274159938) rotate(0 33.375 10)"><text x="0" y="14.016" font-family="Virgil, Segoe UI Emoji" font-size="16px" fill="#000000" text-anchor="start" style="white-space: pre;" direction="ltr" dominant-baseline="alphabetic">Frontend</text></g><g stroke-linecap="round"><g transform="translate(389.3592514919238 226.78865131962635) rotate(0 98.17520102340507 0)"><path d="M0 0 C32.73 0, 163.63 0, 196.35 0 M0 0 C32.73 0, 163.63 0, 196.35 0" stroke="#1e1e1e" stroke-width="1" fill="none"></path></g></g><mask></mask><g stroke-linecap="round"><g transform="translate(62.20697336380363 226.78865131962635) rotate(0 99.19289977473075 0)"><path d="M0 0 C33.06 0, 165.32 0, 198.39 0 M0 0 C33.06 0, 165.32 0, 198.39 0" stroke="#1e1e1e" stroke-width="1" fill="none"></path></g></g><mask></mask><g stroke-linecap="round"><g transform="translate(323.6963417140937 183.46229268518925) rotate(0 0 -44.89158925603027)"><path d="M0 0 C0 -14.96, 0 -74.82, 0 -89.78 M0 0 C0 -14.96, 0 -74.82, 0 -89.78" stroke="#1e1e1e" stroke-width="1" fill="none"></path></g></g><mask></mask><g stroke-linecap="round"><g transform="translate(657.2715708262729 226.78865131962635) rotate(0 98.84473603794646 0)"><path d="M0 0 C32.95 0, 164.74 0, 197.69 0 M0 0 C32.95 0, 164.74 0, 197.69 0" stroke="#1e1e1e" stroke-width="1" fill="none"></path></g></g><mask></mask><g stroke-linecap="round"><g transform="translate(950.988620704249 269.8317553325823) rotate(0 51.179154645179665 51.17915464517969)"><path d="M0 0 C17.06 17.06, 85.3 85.3, 102.36 102.36 M0 0 C17.06 17.06, 85.3 85.3, 102.36 102.36" stroke="#1e1e1e" stroke-width="1" fill="none"></path></g></g><mask></mask><g stroke-linecap="round"><g transform="translate(950.988620704249 175.30255185196717) rotate(0 42.04519786714479 -42.04519786714479)"><path d="M0 0 C14.02 -14.02, 70.08 -70.08, 84.09 -84.09 M0 0 C14.02 -14.02, 70.08 -70.08, 84.09 -84.09" stroke="#1e1e1e" stroke-width="1" fill="none"></path></g></g><mask></mask></svg>